<?xml version="1.0" encoding="UTF-8" standalone="no"?>
<!DOCTYPE svg PUBLIC "-//W3C//DTD SVG 1.1//EN"
 "http://www.w3.org/Graphics/SVG/1.1/DTD/svg11.dtd">
<!-- Generated by graphviz version 2.47.0 (20210316.0004)
 -->
<!-- Title: dependencies Pages: 1 -->
<svg width="504pt" height="284pt"
 viewBox="0.00 0.00 504.00 284.00" xmlns="http://www.w3.org/2000/svg" xmlns:xlink="http://www.w3.org/1999/xlink">
<g id="graph0" class="graph" transform="scale(1 1) rotate(0) translate(4 280)">
<title>dependencies</title>
<polygon fill="white" stroke="transparent" points="-4,4 -4,-280 500,-280 500,4 -4,4"/>
<text text-anchor="start" x="227.01" y="-42.4" font-family="Times-12" font-weight="bold" font-size="14.00">Legend</text>
<polygon fill="#ffffb3" stroke="transparent" points="14,-10 14,-30 34,-30 34,-10 14,-10"/>
<text text-anchor="start" x="37.63" y="-15.4" font-family="Times-12" font-size="14.00"> &#160;Declarations</text>
<polygon fill="#8dd3c7" stroke="transparent" points="127,-10 127,-30 147,-30 147,-10 127,-10"/>
<text text-anchor="start" x="150.73" y="-15.4" font-family="Times-12" font-size="14.00"> &#160;Module</text>
<polygon fill="#80b1d3" stroke="transparent" points="213,-10 213,-30 233,-30 233,-10 213,-10"/>
<text text-anchor="start" x="236.78" y="-15.4" font-family="Times-12" font-size="14.00"> &#160;Bootstrap</text>
<polygon fill="#fdb462" stroke="transparent" points="310,-10 310,-30 330,-30 330,-10 310,-10"/>
<text text-anchor="start" x="333.67" y="-15.4" font-family="Times-12" font-size="14.00"> &#160;Providers</text>
<polygon fill="#fb8072" stroke="transparent" points="406,-10 406,-30 426,-30 426,-10 406,-10"/>
<text text-anchor="start" x="429.73" y="-15.4" font-family="Times-12" font-size="14.00"> &#160;Exports</text>
<g id="clust1" class="cluster">
<title>cluster_AuthenticationModule</title>
<polygon fill="none" stroke="black" stroke-dasharray="1,5" points="67.5,-70 67.5,-268 428.5,-268 428.5,-70 67.5,-70"/>
</g>
<g id="clust6" class="cluster">
<title>cluster_AuthenticationModule_providers</title>
<polygon fill="none" stroke="black" points="75.5,-78 75.5,-130 420.5,-130 420.5,-78 75.5,-78"/>
</g>
<g id="clust4" class="cluster">
<title>cluster_AuthenticationModule_exports</title>
<polygon fill="none" stroke="black" points="155.5,-208 155.5,-260 315.5,-260 315.5,-208 155.5,-208"/>
</g>
<!-- AuthenticationService  -->
<g id="node1" class="node">
<title>AuthenticationService </title>
<polygon fill="#fb8072" stroke="black" points="307.68,-252 163.32,-252 163.32,-216 307.68,-216 307.68,-252"/>
<text text-anchor="middle" x="235.5" y="-229.8" font-family="Times,serif" font-size="14.00">AuthenticationService </text>
</g>
<!-- AuthenticationModule -->
<g id="node2" class="node">
<title>AuthenticationModule</title>
<polygon fill="#8dd3c7" stroke="black" points="306.75,-187 303.75,-191 282.75,-191 279.75,-187 164.25,-187 164.25,-151 306.75,-151 306.75,-187"/>
<text text-anchor="middle" x="235.5" y="-164.8" font-family="Times,serif" font-size="14.00">AuthenticationModule</text>
</g>
<!-- AuthenticationModule&#45;&gt;AuthenticationService  -->
<g id="edge1" class="edge">
<title>AuthenticationModule&#45;&gt;AuthenticationService </title>
<path fill="none" stroke="black" stroke-dasharray="5,2" d="M235.5,-187.11C235.5,-187.11 235.5,-205.99 235.5,-205.99"/>
<polygon fill="black" stroke="black" points="232,-205.99 235.5,-215.99 239,-205.99 232,-205.99"/>
</g>
<!-- AuthenticationService -->
<g id="node3" class="node">
<title>AuthenticationService</title>
<ellipse fill="#fdb462" stroke="black" cx="315.5" cy="-104" rx="97.27" ry="18"/>
<text text-anchor="middle" x="315.5" y="-99.8" font-family="Times,serif" font-size="14.00">AuthenticationService</text>
</g>
<!-- AuthenticationService&#45;&gt;AuthenticationModule -->
<g id="edge2" class="edge">
<title>AuthenticationService&#45;&gt;AuthenticationModule</title>
<path fill="none" stroke="black" d="M262.5,-119.4C262.5,-119.4 262.5,-140.94 262.5,-140.94"/>
<polygon fill="black" stroke="black" points="259,-140.94 262.5,-150.94 266,-140.94 259,-140.94"/>
</g>
<!-- MailService -->
<g id="node4" class="node">
<title>MailService</title>
<ellipse fill="#fdb462" stroke="black" cx="141.5" cy="-104" rx="58.46" ry="18"/>
<text text-anchor="middle" x="141.5" y="-99.8" font-family="Times,serif" font-size="14.00">MailService</text>
</g>
<!-- MailService&#45;&gt;AuthenticationModule -->
<g id="edge3" class="edge">
<title>MailService&#45;&gt;AuthenticationModule</title>
<path fill="none" stroke="black" d="M181.93,-117.15C181.93,-117.15 181.93,-140.69 181.93,-140.69"/>
<polygon fill="black" stroke="black" points="178.43,-140.69 181.93,-150.69 185.43,-140.69 178.43,-140.69"/>
</g>
</g>
</svg>
