<?xml version="1.0" encoding="UTF-8" standalone="no"?>
<!DOCTYPE svg PUBLIC "-//W3C//DTD SVG 1.1//EN"
 "http://www.w3.org/Graphics/SVG/1.1/DTD/svg11.dtd">
<!-- Generated by graphviz version 2.47.0 (20210316.0004)
 -->
<!-- Title: dependencies Pages: 1 -->
<svg width="862pt" height="211pt"
 viewBox="0.00 0.00 862.00 211.00" xmlns="http://www.w3.org/2000/svg" xmlns:xlink="http://www.w3.org/1999/xlink">
<g id="graph0" class="graph" transform="scale(1 1) rotate(0) translate(4 207)">
<title>dependencies</title>
<polygon fill="white" stroke="transparent" points="-4,4 -4,-207 858,-207 858,4 -4,4"/>
<text text-anchor="start" x="406.01" y="-42.4" font-family="Times-12" font-weight="bold" font-size="14.00">Legend</text>
<polygon fill="#ffffb3" stroke="transparent" points="193,-10 193,-30 213,-30 213,-10 193,-10"/>
<text text-anchor="start" x="216.63" y="-15.4" font-family="Times-12" font-size="14.00"> &#160;Declarations</text>
<polygon fill="#8dd3c7" stroke="transparent" points="306,-10 306,-30 326,-30 326,-10 306,-10"/>
<text text-anchor="start" x="329.73" y="-15.4" font-family="Times-12" font-size="14.00"> &#160;Module</text>
<polygon fill="#80b1d3" stroke="transparent" points="392,-10 392,-30 412,-30 412,-10 392,-10"/>
<text text-anchor="start" x="415.78" y="-15.4" font-family="Times-12" font-size="14.00"> &#160;Bootstrap</text>
<polygon fill="#fdb462" stroke="transparent" points="489,-10 489,-30 509,-30 509,-10 489,-10"/>
<text text-anchor="start" x="512.67" y="-15.4" font-family="Times-12" font-size="14.00"> &#160;Providers</text>
<polygon fill="#fb8072" stroke="transparent" points="585,-10 585,-30 605,-30 605,-10 585,-10"/>
<text text-anchor="start" x="608.73" y="-15.4" font-family="Times-12" font-size="14.00"> &#160;Exports</text>
<g id="clust1" class="cluster">
<title>cluster_AlertSubscribeModule</title>
<polygon fill="none" stroke="black" stroke-dasharray="1,5" points="8,-70 8,-195 846,-195 846,-70 8,-70"/>
</g>
<g id="clust3" class="cluster">
<title>cluster_AlertSubscribeModule_imports</title>
<polygon fill="none" stroke="black" points="370,-78 370,-130 838,-130 838,-78 370,-78"/>
</g>
<g id="clust6" class="cluster">
<title>cluster_AlertSubscribeModule_providers</title>
<polygon fill="none" stroke="black" points="16,-78 16,-130 362,-130 362,-78 16,-78"/>
</g>
<!-- AuthenticationModule -->
<g id="node1" class="node">
<title>AuthenticationModule</title>
<polygon fill="#8dd3c7" stroke="black" points="830.25,-122 827.25,-126 806.25,-126 803.25,-122 687.75,-122 687.75,-86 830.25,-86 830.25,-122"/>
<text text-anchor="middle" x="759" y="-99.8" font-family="Times,serif" font-size="14.00">AuthenticationModule</text>
</g>
<!-- AlertSubscribeModule -->
<g id="node5" class="node">
<title>AlertSubscribeModule</title>
<polygon fill="#8dd3c7" stroke="black" points="545.52,-187 542.52,-191 521.52,-191 518.52,-187 402.48,-187 402.48,-151 545.52,-151 545.52,-187"/>
<text text-anchor="middle" x="474" y="-164.8" font-family="Times,serif" font-size="14.00">AlertSubscribeModule</text>
</g>
<!-- AuthenticationModule&#45;&gt;AlertSubscribeModule -->
<g id="edge1" class="edge">
<title>AuthenticationModule&#45;&gt;AlertSubscribeModule</title>
<path fill="none" stroke="black" d="M759,-122.28C759,-143.32 759,-175 759,-175 759,-175 555.55,-175 555.55,-175"/>
<polygon fill="black" stroke="black" points="555.55,-171.5 545.55,-175 555.55,-178.5 555.55,-171.5"/>
</g>
<!-- CarModule -->
<g id="node2" class="node">
<title>CarModule</title>
<polygon fill="#8dd3c7" stroke="black" points="669.76,-122 666.76,-126 645.76,-126 642.76,-122 590.24,-122 590.24,-86 669.76,-86 669.76,-122"/>
<text text-anchor="middle" x="630" y="-99.8" font-family="Times,serif" font-size="14.00">CarModule</text>
</g>
<!-- CarModule&#45;&gt;AlertSubscribeModule -->
<g id="edge2" class="edge">
<title>CarModule&#45;&gt;AlertSubscribeModule</title>
<path fill="none" stroke="black" d="M630,-122.02C630,-139.37 630,-163 630,-163 630,-163 555.61,-163 555.61,-163"/>
<polygon fill="black" stroke="black" points="555.61,-159.5 545.61,-163 555.61,-166.5 555.61,-159.5"/>
</g>
<!-- FilterModule -->
<g id="node3" class="node">
<title>FilterModule</title>
<polygon fill="#8dd3c7" stroke="black" points="571.88,-122 568.88,-126 547.88,-126 544.88,-122 482.12,-122 482.12,-86 571.88,-86 571.88,-122"/>
<text text-anchor="middle" x="527" y="-99.8" font-family="Times,serif" font-size="14.00">FilterModule</text>
</g>
<!-- FilterModule&#45;&gt;AlertSubscribeModule -->
<g id="edge3" class="edge">
<title>FilterModule&#45;&gt;AlertSubscribeModule</title>
<path fill="none" stroke="black" d="M513.91,-122.11C513.91,-122.11 513.91,-140.99 513.91,-140.99"/>
<polygon fill="black" stroke="black" points="510.41,-140.99 513.91,-150.99 517.41,-140.99 510.41,-140.99"/>
</g>
<!-- UserModule -->
<g id="node4" class="node">
<title>UserModule</title>
<polygon fill="#8dd3c7" stroke="black" points="463.98,-122 460.98,-126 439.98,-126 436.98,-122 378.02,-122 378.02,-86 463.98,-86 463.98,-122"/>
<text text-anchor="middle" x="421" y="-99.8" font-family="Times,serif" font-size="14.00">UserModule</text>
</g>
<!-- UserModule&#45;&gt;AlertSubscribeModule -->
<g id="edge4" class="edge">
<title>UserModule&#45;&gt;AlertSubscribeModule</title>
<path fill="none" stroke="black" d="M433.11,-122.11C433.11,-122.11 433.11,-140.99 433.11,-140.99"/>
<polygon fill="black" stroke="black" points="429.61,-140.99 433.11,-150.99 436.61,-140.99 429.61,-140.99"/>
</g>
<!-- AlertSubscribeService -->
<g id="node6" class="node">
<title>AlertSubscribeService</title>
<ellipse fill="#fdb462" stroke="black" cx="256" cy="-104" rx="97.83" ry="18"/>
<text text-anchor="middle" x="256" y="-99.8" font-family="Times,serif" font-size="14.00">AlertSubscribeService</text>
</g>
<!-- AlertSubscribeService&#45;&gt;AlertSubscribeModule -->
<g id="edge5" class="edge">
<title>AlertSubscribeService&#45;&gt;AlertSubscribeModule</title>
<path fill="none" stroke="black" d="M256,-122.02C256,-139.37 256,-163 256,-163 256,-163 392.32,-163 392.32,-163"/>
<polygon fill="black" stroke="black" points="392.32,-166.5 402.32,-163 392.32,-159.5 392.32,-166.5"/>
</g>
<!-- MailService -->
<g id="node7" class="node">
<title>MailService</title>
<ellipse fill="#fdb462" stroke="black" cx="82" cy="-104" rx="58.46" ry="18"/>
<text text-anchor="middle" x="82" y="-99.8" font-family="Times,serif" font-size="14.00">MailService</text>
</g>
<!-- MailService&#45;&gt;AlertSubscribeModule -->
<g id="edge6" class="edge">
<title>MailService&#45;&gt;AlertSubscribeModule</title>
<path fill="none" stroke="black" d="M82,-122.28C82,-143.32 82,-175 82,-175 82,-175 392.1,-175 392.1,-175"/>
<polygon fill="black" stroke="black" points="392.1,-178.5 402.1,-175 392.1,-171.5 392.1,-178.5"/>
</g>
</g>
</svg>
