<?xml version="1.0" encoding="UTF-8" standalone="no"?>
<!DOCTYPE svg PUBLIC "-//W3C//DTD SVG 1.1//EN"
 "http://www.w3.org/Graphics/SVG/1.1/DTD/svg11.dtd">
<!-- Generated by graphviz version 2.47.0 (20210316.0004)
 -->
<!-- Title: dependencies Pages: 1 -->
<svg width="859pt" height="284pt"
 viewBox="0.00 0.00 859.00 284.00" xmlns="http://www.w3.org/2000/svg" xmlns:xlink="http://www.w3.org/1999/xlink">
<g id="graph0" class="graph" transform="scale(1 1) rotate(0) translate(4 280)">
<title>dependencies</title>
<polygon fill="white" stroke="transparent" points="-4,4 -4,-280 855,-280 855,4 -4,4"/>
<text text-anchor="start" x="404.51" y="-42.4" font-family="Times-12" font-weight="bold" font-size="14.00">Legend</text>
<polygon fill="#ffffb3" stroke="transparent" points="191.5,-10 191.5,-30 211.5,-30 211.5,-10 191.5,-10"/>
<text text-anchor="start" x="215.13" y="-15.4" font-family="Times-12" font-size="14.00"> &#160;Declarations</text>
<polygon fill="#8dd3c7" stroke="transparent" points="304.5,-10 304.5,-30 324.5,-30 324.5,-10 304.5,-10"/>
<text text-anchor="start" x="328.23" y="-15.4" font-family="Times-12" font-size="14.00"> &#160;Module</text>
<polygon fill="#80b1d3" stroke="transparent" points="390.5,-10 390.5,-30 410.5,-30 410.5,-10 390.5,-10"/>
<text text-anchor="start" x="414.28" y="-15.4" font-family="Times-12" font-size="14.00"> &#160;Bootstrap</text>
<polygon fill="#fdb462" stroke="transparent" points="487.5,-10 487.5,-30 507.5,-30 507.5,-10 487.5,-10"/>
<text text-anchor="start" x="511.17" y="-15.4" font-family="Times-12" font-size="14.00"> &#160;Providers</text>
<polygon fill="#fb8072" stroke="transparent" points="583.5,-10 583.5,-30 603.5,-30 603.5,-10 583.5,-10"/>
<text text-anchor="start" x="607.23" y="-15.4" font-family="Times-12" font-size="14.00"> &#160;Exports</text>
<g id="clust1" class="cluster">
<title>cluster_UserModule</title>
<polygon fill="none" stroke="black" stroke-dasharray="1,5" points="8,-70 8,-268 843,-268 843,-70 8,-70"/>
</g>
<g id="clust4" class="cluster">
<title>cluster_UserModule_exports</title>
<polygon fill="none" stroke="black" points="306,-208 306,-260 410,-260 410,-208 306,-208"/>
</g>
<g id="clust6" class="cluster">
<title>cluster_UserModule_providers</title>
<polygon fill="none" stroke="black" points="16,-78 16,-130 835,-130 835,-78 16,-78"/>
</g>
<!-- UserService  -->
<g id="node1" class="node">
<title>UserService </title>
<polygon fill="#fb8072" stroke="black" points="401.9,-252 314.1,-252 314.1,-216 401.9,-216 401.9,-252"/>
<text text-anchor="middle" x="358" y="-229.8" font-family="Times,serif" font-size="14.00">UserService </text>
</g>
<!-- UserModule -->
<g id="node2" class="node">
<title>UserModule</title>
<polygon fill="#8dd3c7" stroke="black" points="400.98,-187 397.98,-191 376.98,-191 373.98,-187 315.02,-187 315.02,-151 400.98,-151 400.98,-187"/>
<text text-anchor="middle" x="358" y="-164.8" font-family="Times,serif" font-size="14.00">UserModule</text>
</g>
<!-- UserModule&#45;&gt;UserService  -->
<g id="edge1" class="edge">
<title>UserModule&#45;&gt;UserService </title>
<path fill="none" stroke="black" stroke-dasharray="5,2" d="M358,-187.11C358,-187.11 358,-205.99 358,-205.99"/>
<polygon fill="black" stroke="black" points="354.5,-205.99 358,-215.99 361.5,-205.99 354.5,-205.99"/>
</g>
<!-- AwsS3Service -->
<g id="node3" class="node">
<title>AwsS3Service</title>
<ellipse fill="#fdb462" stroke="black" cx="759" cy="-104" rx="67.77" ry="18"/>
<text text-anchor="middle" x="759" y="-99.8" font-family="Times,serif" font-size="14.00">AwsS3Service</text>
</g>
<!-- AwsS3Service&#45;&gt;UserModule -->
<g id="edge2" class="edge">
<title>AwsS3Service&#45;&gt;UserModule</title>
<path fill="none" stroke="black" d="M759,-122.28C759,-143.32 759,-175 759,-175 759,-175 411.3,-175 411.3,-175"/>
<polygon fill="black" stroke="black" points="411.3,-171.5 401.3,-175 411.29,-178.5 411.3,-171.5"/>
</g>
<!-- FirebaseNotificationService -->
<g id="node4" class="node">
<title>FirebaseNotificationService</title>
<ellipse fill="#fdb462" stroke="black" cx="554" cy="-104" rx="119.23" ry="18"/>
<text text-anchor="middle" x="554" y="-99.8" font-family="Times,serif" font-size="14.00">FirebaseNotificationService</text>
</g>
<!-- FirebaseNotificationService&#45;&gt;UserModule -->
<g id="edge3" class="edge">
<title>FirebaseNotificationService&#45;&gt;UserModule</title>
<path fill="none" stroke="black" d="M554,-122.02C554,-139.37 554,-163 554,-163 554,-163 411.01,-163 411.01,-163"/>
<polygon fill="black" stroke="black" points="411.01,-159.5 401.01,-163 411.01,-166.5 411.01,-159.5"/>
</g>
<!-- MailService -->
<g id="node5" class="node">
<title>MailService</title>
<ellipse fill="#fdb462" stroke="black" cx="358" cy="-104" rx="58.46" ry="18"/>
<text text-anchor="middle" x="358" y="-99.8" font-family="Times,serif" font-size="14.00">MailService</text>
</g>
<!-- MailService&#45;&gt;UserModule -->
<g id="edge4" class="edge">
<title>MailService&#45;&gt;UserModule</title>
<path fill="none" stroke="black" d="M358,-122.11C358,-122.11 358,-140.99 358,-140.99"/>
<polygon fill="black" stroke="black" points="354.5,-140.99 358,-150.99 361.5,-140.99 354.5,-140.99"/>
</g>
<!-- RedisService -->
<g id="node6" class="node">
<title>RedisService</title>
<ellipse fill="#fdb462" stroke="black" cx="220" cy="-104" rx="61.97" ry="18"/>
<text text-anchor="middle" x="220" y="-99.8" font-family="Times,serif" font-size="14.00">RedisService</text>
</g>
<!-- RedisService&#45;&gt;UserModule -->
<g id="edge5" class="edge">
<title>RedisService&#45;&gt;UserModule</title>
<path fill="none" stroke="black" d="M220,-122.02C220,-139.37 220,-163 220,-163 220,-163 304.71,-163 304.71,-163"/>
<polygon fill="black" stroke="black" points="304.71,-166.5 314.71,-163 304.71,-159.5 304.71,-166.5"/>
</g>
<!-- UserService -->
<g id="node7" class="node">
<title>UserService</title>
<ellipse fill="#fdb462" stroke="black" cx="82" cy="-104" rx="58.44" ry="18"/>
<text text-anchor="middle" x="82" y="-99.8" font-family="Times,serif" font-size="14.00">UserService</text>
</g>
<!-- UserService&#45;&gt;UserModule -->
<g id="edge6" class="edge">
<title>UserService&#45;&gt;UserModule</title>
<path fill="none" stroke="black" d="M82,-122.28C82,-143.32 82,-175 82,-175 82,-175 304.88,-175 304.88,-175"/>
<polygon fill="black" stroke="black" points="304.88,-178.5 314.88,-175 304.87,-171.5 304.88,-178.5"/>
</g>
</g>
</svg>
