<?xml version="1.0" encoding="UTF-8" standalone="no"?>
<!DOCTYPE svg PUBLIC "-//W3C//DTD SVG 1.1//EN"
 "http://www.w3.org/Graphics/SVG/1.1/DTD/svg11.dtd">
<!-- Generated by graphviz version 2.47.0 (20210316.0004)
 -->
<!-- Title: dependencies Pages: 1 -->
<svg width="678pt" height="211pt"
 viewBox="0.00 0.00 678.00 211.00" xmlns="http://www.w3.org/2000/svg" xmlns:xlink="http://www.w3.org/1999/xlink">
<g id="graph0" class="graph" transform="scale(1 1) rotate(0) translate(4 207)">
<title>dependencies</title>
<polygon fill="white" stroke="transparent" points="-4,4 -4,-207 674,-207 674,4 -4,4"/>
<text text-anchor="start" x="314.01" y="-42.4" font-family="Times-12" font-weight="bold" font-size="14.00">Legend</text>
<polygon fill="#ffffb3" stroke="transparent" points="101,-10 101,-30 121,-30 121,-10 101,-10"/>
<text text-anchor="start" x="124.63" y="-15.4" font-family="Times-12" font-size="14.00"> &#160;Declarations</text>
<polygon fill="#8dd3c7" stroke="transparent" points="214,-10 214,-30 234,-30 234,-10 214,-10"/>
<text text-anchor="start" x="237.73" y="-15.4" font-family="Times-12" font-size="14.00"> &#160;Module</text>
<polygon fill="#80b1d3" stroke="transparent" points="300,-10 300,-30 320,-30 320,-10 300,-10"/>
<text text-anchor="start" x="323.78" y="-15.4" font-family="Times-12" font-size="14.00"> &#160;Bootstrap</text>
<polygon fill="#fdb462" stroke="transparent" points="397,-10 397,-30 417,-30 417,-10 397,-10"/>
<text text-anchor="start" x="420.67" y="-15.4" font-family="Times-12" font-size="14.00"> &#160;Providers</text>
<polygon fill="#fb8072" stroke="transparent" points="493,-10 493,-30 513,-30 513,-10 493,-10"/>
<text text-anchor="start" x="516.73" y="-15.4" font-family="Times-12" font-size="14.00"> &#160;Exports</text>
<g id="clust1" class="cluster">
<title>cluster_RemoteServiceModule</title>
<polygon fill="none" stroke="black" stroke-dasharray="1,5" points="8,-70 8,-195 662,-195 662,-70 8,-70"/>
</g>
<g id="clust3" class="cluster">
<title>cluster_RemoteServiceModule_imports</title>
<polygon fill="none" stroke="black" points="392,-78 392,-130 654,-130 654,-78 392,-78"/>
</g>
<g id="clust6" class="cluster">
<title>cluster_RemoteServiceModule_providers</title>
<polygon fill="none" stroke="black" points="16,-78 16,-130 384,-130 384,-78 16,-78"/>
</g>
<!-- AuthenticationModule -->
<g id="node1" class="node">
<title>AuthenticationModule</title>
<polygon fill="#8dd3c7" stroke="black" points="646.25,-122 643.25,-126 622.25,-126 619.25,-122 503.75,-122 503.75,-86 646.25,-86 646.25,-122"/>
<text text-anchor="middle" x="575" y="-99.8" font-family="Times,serif" font-size="14.00">AuthenticationModule</text>
</g>
<!-- RemoteServiceModule -->
<g id="node3" class="node">
<title>RemoteServiceModule</title>
<polygon fill="#8dd3c7" stroke="black" points="447.57,-187 444.57,-191 423.57,-191 420.57,-187 302.43,-187 302.43,-151 447.57,-151 447.57,-187"/>
<text text-anchor="middle" x="375" y="-164.8" font-family="Times,serif" font-size="14.00">RemoteServiceModule</text>
</g>
<!-- AuthenticationModule&#45;&gt;RemoteServiceModule -->
<g id="edge1" class="edge">
<title>AuthenticationModule&#45;&gt;RemoteServiceModule</title>
<path fill="none" stroke="black" d="M575,-122.11C575,-141.34 575,-169 575,-169 575,-169 457.77,-169 457.77,-169"/>
<polygon fill="black" stroke="black" points="457.77,-165.5 447.77,-169 457.77,-172.5 457.77,-165.5"/>
</g>
<!-- UserModule -->
<g id="node2" class="node">
<title>UserModule</title>
<polygon fill="#8dd3c7" stroke="black" points="485.98,-122 482.98,-126 461.98,-126 458.98,-122 400.02,-122 400.02,-86 485.98,-86 485.98,-122"/>
<text text-anchor="middle" x="443" y="-99.8" font-family="Times,serif" font-size="14.00">UserModule</text>
</g>
<!-- UserModule&#45;&gt;RemoteServiceModule -->
<g id="edge2" class="edge">
<title>UserModule&#45;&gt;RemoteServiceModule</title>
<path fill="none" stroke="black" d="M423.77,-122.11C423.77,-122.11 423.77,-140.99 423.77,-140.99"/>
<polygon fill="black" stroke="black" points="420.27,-140.99 423.77,-150.99 427.27,-140.99 420.27,-140.99"/>
</g>
<!-- AwsS3Service -->
<g id="node4" class="node">
<title>AwsS3Service</title>
<ellipse fill="#fdb462" stroke="black" cx="308" cy="-104" rx="67.77" ry="18"/>
<text text-anchor="middle" x="308" y="-99.8" font-family="Times,serif" font-size="14.00">AwsS3Service</text>
</g>
<!-- AwsS3Service&#45;&gt;RemoteServiceModule -->
<g id="edge3" class="edge">
<title>AwsS3Service&#45;&gt;RemoteServiceModule</title>
<path fill="none" stroke="black" d="M339.17,-120.07C339.17,-120.07 339.17,-140.82 339.17,-140.82"/>
<polygon fill="black" stroke="black" points="335.67,-140.82 339.17,-150.82 342.67,-140.82 335.67,-140.82"/>
</g>
<!-- RemoteServiceService -->
<g id="node5" class="node">
<title>RemoteServiceService</title>
<ellipse fill="#fdb462" stroke="black" cx="123" cy="-104" rx="98.97" ry="18"/>
<text text-anchor="middle" x="123" y="-99.8" font-family="Times,serif" font-size="14.00">RemoteServiceService</text>
</g>
<!-- RemoteServiceService&#45;&gt;RemoteServiceModule -->
<g id="edge4" class="edge">
<title>RemoteServiceService&#45;&gt;RemoteServiceModule</title>
<path fill="none" stroke="black" d="M123,-122.11C123,-141.34 123,-169 123,-169 123,-169 292.45,-169 292.45,-169"/>
<polygon fill="black" stroke="black" points="292.45,-172.5 302.45,-169 292.45,-165.5 292.45,-172.5"/>
</g>
</g>
</svg>
