<?xml version="1.0" encoding="UTF-8" standalone="no"?>
<!DOCTYPE svg PUBLIC "-//W3C//DTD SVG 1.1//EN"
 "http://www.w3.org/Graphics/SVG/1.1/DTD/svg11.dtd">
<!-- Generated by graphviz version 2.47.0 (20210316.0004)
 -->
<!-- Title: dependencies Pages: 1 -->
<svg width="558pt" height="284pt"
 viewBox="0.00 0.00 558.00 284.00" xmlns="http://www.w3.org/2000/svg" xmlns:xlink="http://www.w3.org/1999/xlink">
<g id="graph0" class="graph" transform="scale(1 1) rotate(0) translate(4 280)">
<title>dependencies</title>
<polygon fill="white" stroke="transparent" points="-4,4 -4,-280 554,-280 554,4 -4,4"/>
<text text-anchor="start" x="254.01" y="-42.4" font-family="Times-12" font-weight="bold" font-size="14.00">Legend</text>
<polygon fill="#ffffb3" stroke="transparent" points="41,-10 41,-30 61,-30 61,-10 41,-10"/>
<text text-anchor="start" x="64.63" y="-15.4" font-family="Times-12" font-size="14.00"> &#160;Declarations</text>
<polygon fill="#8dd3c7" stroke="transparent" points="154,-10 154,-30 174,-30 174,-10 154,-10"/>
<text text-anchor="start" x="177.73" y="-15.4" font-family="Times-12" font-size="14.00"> &#160;Module</text>
<polygon fill="#80b1d3" stroke="transparent" points="240,-10 240,-30 260,-30 260,-10 240,-10"/>
<text text-anchor="start" x="263.78" y="-15.4" font-family="Times-12" font-size="14.00"> &#160;Bootstrap</text>
<polygon fill="#fdb462" stroke="transparent" points="337,-10 337,-30 357,-30 357,-10 337,-10"/>
<text text-anchor="start" x="360.67" y="-15.4" font-family="Times-12" font-size="14.00"> &#160;Providers</text>
<polygon fill="#fb8072" stroke="transparent" points="433,-10 433,-30 453,-30 453,-10 433,-10"/>
<text text-anchor="start" x="456.73" y="-15.4" font-family="Times-12" font-size="14.00"> &#160;Exports</text>
<g id="clust1" class="cluster">
<title>cluster_FinanceApplicationModule</title>
<polygon fill="none" stroke="black" stroke-dasharray="1,5" points="8,-70 8,-268 542,-268 542,-70 8,-70"/>
</g>
<g id="clust3" class="cluster">
<title>cluster_FinanceApplicationModule_imports</title>
<polygon fill="none" stroke="black" points="272,-78 272,-130 534,-130 534,-78 272,-78"/>
</g>
<g id="clust6" class="cluster">
<title>cluster_FinanceApplicationModule_providers</title>
<polygon fill="none" stroke="black" points="16,-78 16,-130 264,-130 264,-78 16,-78"/>
</g>
<g id="clust4" class="cluster">
<title>cluster_FinanceApplicationModule_exports</title>
<polygon fill="none" stroke="black" points="229,-208 229,-260 417,-260 417,-208 229,-208"/>
</g>
<!-- AuthenticationModule -->
<g id="node1" class="node">
<title>AuthenticationModule</title>
<polygon fill="#8dd3c7" stroke="black" points="526.25,-122 523.25,-126 502.25,-126 499.25,-122 383.75,-122 383.75,-86 526.25,-86 526.25,-122"/>
<text text-anchor="middle" x="455" y="-99.8" font-family="Times,serif" font-size="14.00">AuthenticationModule</text>
</g>
<!-- FinanceApplicationModule -->
<g id="node3" class="node">
<title>FinanceApplicationModule</title>
<polygon fill="#8dd3c7" stroke="black" points="407.97,-187 404.97,-191 383.97,-191 380.97,-187 238.03,-187 238.03,-151 407.97,-151 407.97,-187"/>
<text text-anchor="middle" x="323" y="-164.8" font-family="Times,serif" font-size="14.00">FinanceApplicationModule</text>
</g>
<!-- AuthenticationModule&#45;&gt;FinanceApplicationModule -->
<g id="edge1" class="edge">
<title>AuthenticationModule&#45;&gt;FinanceApplicationModule</title>
<path fill="none" stroke="black" d="M395.8,-122.11C395.8,-122.11 395.8,-140.99 395.8,-140.99"/>
<polygon fill="black" stroke="black" points="392.3,-140.99 395.8,-150.99 399.3,-140.99 392.3,-140.99"/>
</g>
<!-- UserModule -->
<g id="node2" class="node">
<title>UserModule</title>
<polygon fill="#8dd3c7" stroke="black" points="365.98,-122 362.98,-126 341.98,-126 338.98,-122 280.02,-122 280.02,-86 365.98,-86 365.98,-122"/>
<text text-anchor="middle" x="323" y="-99.8" font-family="Times,serif" font-size="14.00">UserModule</text>
</g>
<!-- UserModule&#45;&gt;FinanceApplicationModule -->
<g id="edge2" class="edge">
<title>UserModule&#45;&gt;FinanceApplicationModule</title>
<path fill="none" stroke="black" d="M323,-122.11C323,-122.11 323,-140.99 323,-140.99"/>
<polygon fill="black" stroke="black" points="319.5,-140.99 323,-150.99 326.5,-140.99 319.5,-140.99"/>
</g>
<!-- FinanceApplicationService  -->
<g id="node4" class="node">
<title>FinanceApplicationService </title>
<polygon fill="#fb8072" stroke="black" points="408.89,-252 237.11,-252 237.11,-216 408.89,-216 408.89,-252"/>
<text text-anchor="middle" x="323" y="-229.8" font-family="Times,serif" font-size="14.00">FinanceApplicationService </text>
</g>
<!-- FinanceApplicationModule&#45;&gt;FinanceApplicationService  -->
<g id="edge3" class="edge">
<title>FinanceApplicationModule&#45;&gt;FinanceApplicationService </title>
<path fill="none" stroke="black" stroke-dasharray="5,2" d="M323,-187.11C323,-187.11 323,-205.99 323,-205.99"/>
<polygon fill="black" stroke="black" points="319.5,-205.99 323,-215.99 326.5,-205.99 319.5,-205.99"/>
</g>
<!-- FinanceApplicationService -->
<g id="node5" class="node">
<title>FinanceApplicationService</title>
<ellipse fill="#fdb462" stroke="black" cx="140" cy="-104" rx="116.31" ry="18"/>
<text text-anchor="middle" x="140" y="-99.8" font-family="Times,serif" font-size="14.00">FinanceApplicationService</text>
</g>
<!-- FinanceApplicationService&#45;&gt;FinanceApplicationModule -->
<g id="edge4" class="edge">
<title>FinanceApplicationService&#45;&gt;FinanceApplicationModule</title>
<path fill="none" stroke="black" d="M247.09,-111.2C247.09,-111.2 247.09,-140.96 247.09,-140.96"/>
<polygon fill="black" stroke="black" points="243.59,-140.96 247.09,-150.96 250.59,-140.96 243.59,-140.96"/>
</g>
</g>
</svg>
