<?xml version="1.0" encoding="UTF-8" standalone="no"?>
<!DOCTYPE svg PUBLIC "-//W3C//DTD SVG 1.1//EN"
 "http://www.w3.org/Graphics/SVG/1.1/DTD/svg11.dtd">
<!-- Generated by graphviz version 2.47.0 (20210316.0004)
 -->
<!-- Title: dependencies Pages: 1 -->
<svg width="720pt" height="211pt"
 viewBox="0.00 0.00 720.00 211.00" xmlns="http://www.w3.org/2000/svg" xmlns:xlink="http://www.w3.org/1999/xlink">
<g id="graph0" class="graph" transform="scale(1 1) rotate(0) translate(4 207)">
<title>dependencies</title>
<polygon fill="white" stroke="transparent" points="-4,4 -4,-207 716,-207 716,4 -4,4"/>
<text text-anchor="start" x="335.01" y="-42.4" font-family="Times-12" font-weight="bold" font-size="14.00">Legend</text>
<polygon fill="#ffffb3" stroke="transparent" points="122,-10 122,-30 142,-30 142,-10 122,-10"/>
<text text-anchor="start" x="145.63" y="-15.4" font-family="Times-12" font-size="14.00"> &#160;Declarations</text>
<polygon fill="#8dd3c7" stroke="transparent" points="235,-10 235,-30 255,-30 255,-10 235,-10"/>
<text text-anchor="start" x="258.73" y="-15.4" font-family="Times-12" font-size="14.00"> &#160;Module</text>
<polygon fill="#80b1d3" stroke="transparent" points="321,-10 321,-30 341,-30 341,-10 321,-10"/>
<text text-anchor="start" x="344.78" y="-15.4" font-family="Times-12" font-size="14.00"> &#160;Bootstrap</text>
<polygon fill="#fdb462" stroke="transparent" points="418,-10 418,-30 438,-30 438,-10 418,-10"/>
<text text-anchor="start" x="441.67" y="-15.4" font-family="Times-12" font-size="14.00"> &#160;Providers</text>
<polygon fill="#fb8072" stroke="transparent" points="514,-10 514,-30 534,-30 534,-10 514,-10"/>
<text text-anchor="start" x="537.73" y="-15.4" font-family="Times-12" font-size="14.00"> &#160;Exports</text>
<g id="clust1" class="cluster">
<title>cluster_AwardModule</title>
<polygon fill="none" stroke="black" stroke-dasharray="1,5" points="8,-70 8,-195 704,-195 704,-70 8,-70"/>
</g>
<g id="clust3" class="cluster">
<title>cluster_AwardModule_imports</title>
<polygon fill="none" stroke="black" points="326,-78 326,-130 696,-130 696,-78 326,-78"/>
</g>
<g id="clust6" class="cluster">
<title>cluster_AwardModule_providers</title>
<polygon fill="none" stroke="black" points="16,-78 16,-130 318,-130 318,-78 16,-78"/>
</g>
<!-- AuthenticationModule -->
<g id="node1" class="node">
<title>AuthenticationModule</title>
<polygon fill="#8dd3c7" stroke="black" points="688.25,-122 685.25,-126 664.25,-126 661.25,-122 545.75,-122 545.75,-86 688.25,-86 688.25,-122"/>
<text text-anchor="middle" x="617" y="-99.8" font-family="Times,serif" font-size="14.00">AuthenticationModule</text>
</g>
<!-- AwardModule -->
<g id="node4" class="node">
<title>AwardModule</title>
<polygon fill="#8dd3c7" stroke="black" points="425.64,-187 422.64,-191 401.64,-191 398.64,-187 328.36,-187 328.36,-151 425.64,-151 425.64,-187"/>
<text text-anchor="middle" x="377" y="-164.8" font-family="Times,serif" font-size="14.00">AwardModule</text>
</g>
<!-- AuthenticationModule&#45;&gt;AwardModule -->
<g id="edge1" class="edge">
<title>AuthenticationModule&#45;&gt;AwardModule</title>
<path fill="none" stroke="black" d="M617,-122.28C617,-143.32 617,-175 617,-175 617,-175 435.86,-175 435.86,-175"/>
<polygon fill="black" stroke="black" points="435.86,-171.5 425.86,-175 435.86,-178.5 435.86,-171.5"/>
</g>
<!-- StoreModule -->
<g id="node2" class="node">
<title>StoreModule</title>
<polygon fill="#8dd3c7" stroke="black" points="527.6,-122 524.6,-126 503.6,-126 500.6,-122 438.4,-122 438.4,-86 527.6,-86 527.6,-122"/>
<text text-anchor="middle" x="483" y="-99.8" font-family="Times,serif" font-size="14.00">StoreModule</text>
</g>
<!-- StoreModule&#45;&gt;AwardModule -->
<g id="edge2" class="edge">
<title>StoreModule&#45;&gt;AwardModule</title>
<path fill="none" stroke="black" d="M483,-122.02C483,-139.37 483,-163 483,-163 483,-163 435.66,-163 435.66,-163"/>
<polygon fill="black" stroke="black" points="435.66,-159.5 425.66,-163 435.66,-166.5 435.66,-159.5"/>
</g>
<!-- UserModule -->
<g id="node3" class="node">
<title>UserModule</title>
<polygon fill="#8dd3c7" stroke="black" points="419.98,-122 416.98,-126 395.98,-126 392.98,-122 334.02,-122 334.02,-86 419.98,-86 419.98,-122"/>
<text text-anchor="middle" x="377" y="-99.8" font-family="Times,serif" font-size="14.00">UserModule</text>
</g>
<!-- UserModule&#45;&gt;AwardModule -->
<g id="edge3" class="edge">
<title>UserModule&#45;&gt;AwardModule</title>
<path fill="none" stroke="black" d="M377,-122.11C377,-122.11 377,-140.99 377,-140.99"/>
<polygon fill="black" stroke="black" points="373.5,-140.99 377,-150.99 380.5,-140.99 373.5,-140.99"/>
</g>
<!-- AwardService -->
<g id="node5" class="node">
<title>AwardService</title>
<ellipse fill="#fdb462" stroke="black" cx="244" cy="-104" rx="66.03" ry="18"/>
<text text-anchor="middle" x="244" y="-99.8" font-family="Times,serif" font-size="14.00">AwardService</text>
</g>
<!-- AwardService&#45;&gt;AwardModule -->
<g id="edge4" class="edge">
<title>AwardService&#45;&gt;AwardModule</title>
<path fill="none" stroke="black" d="M244,-122.02C244,-139.37 244,-163 244,-163 244,-163 318.23,-163 318.23,-163"/>
<polygon fill="black" stroke="black" points="318.23,-166.5 328.23,-163 318.23,-159.5 318.23,-166.5"/>
</g>
<!-- AwsS3Service -->
<g id="node6" class="node">
<title>AwsS3Service</title>
<ellipse fill="#fdb462" stroke="black" cx="92" cy="-104" rx="67.77" ry="18"/>
<text text-anchor="middle" x="92" y="-99.8" font-family="Times,serif" font-size="14.00">AwsS3Service</text>
</g>
<!-- AwsS3Service&#45;&gt;AwardModule -->
<g id="edge5" class="edge">
<title>AwsS3Service&#45;&gt;AwardModule</title>
<path fill="none" stroke="black" d="M92,-122.28C92,-143.32 92,-175 92,-175 92,-175 318.33,-175 318.33,-175"/>
<polygon fill="black" stroke="black" points="318.33,-178.5 328.33,-175 318.33,-171.5 318.33,-178.5"/>
</g>
</g>
</svg>
