<?xml version="1.0" encoding="UTF-8" standalone="no"?>
<!DOCTYPE svg PUBLIC "-//W3C//DTD SVG 1.1//EN"
 "http://www.w3.org/Graphics/SVG/1.1/DTD/svg11.dtd">
<!-- Generated by graphviz version 2.47.0 (20210316.0004)
 -->
<!-- Title: dependencies Pages: 1 -->
<svg width="1034pt" height="284pt"
 viewBox="0.00 0.00 1034.00 284.00" xmlns="http://www.w3.org/2000/svg" xmlns:xlink="http://www.w3.org/1999/xlink">
<g id="graph0" class="graph" transform="scale(1 1) rotate(0) translate(4 280)">
<title>dependencies</title>
<polygon fill="white" stroke="transparent" points="-4,4 -4,-280 1030,-280 1030,4 -4,4"/>
<text text-anchor="start" x="492.01" y="-42.4" font-family="Times-12" font-weight="bold" font-size="14.00">Legend</text>
<polygon fill="#ffffb3" stroke="transparent" points="279,-10 279,-30 299,-30 299,-10 279,-10"/>
<text text-anchor="start" x="302.63" y="-15.4" font-family="Times-12" font-size="14.00"> &#160;Declarations</text>
<polygon fill="#8dd3c7" stroke="transparent" points="392,-10 392,-30 412,-30 412,-10 392,-10"/>
<text text-anchor="start" x="415.73" y="-15.4" font-family="Times-12" font-size="14.00"> &#160;Module</text>
<polygon fill="#80b1d3" stroke="transparent" points="478,-10 478,-30 498,-30 498,-10 478,-10"/>
<text text-anchor="start" x="501.78" y="-15.4" font-family="Times-12" font-size="14.00"> &#160;Bootstrap</text>
<polygon fill="#fdb462" stroke="transparent" points="575,-10 575,-30 595,-30 595,-10 575,-10"/>
<text text-anchor="start" x="598.67" y="-15.4" font-family="Times-12" font-size="14.00"> &#160;Providers</text>
<polygon fill="#fb8072" stroke="transparent" points="671,-10 671,-30 691,-30 691,-10 671,-10"/>
<text text-anchor="start" x="694.73" y="-15.4" font-family="Times-12" font-size="14.00"> &#160;Exports</text>
<g id="clust1" class="cluster">
<title>cluster_StoreModule</title>
<polygon fill="none" stroke="black" stroke-dasharray="1,5" points="8,-70 8,-268 1018,-268 1018,-70 8,-70"/>
</g>
<g id="clust3" class="cluster">
<title>cluster_StoreModule_imports</title>
<polygon fill="none" stroke="black" points="706,-78 706,-130 1010,-130 1010,-78 706,-78"/>
</g>
<g id="clust6" class="cluster">
<title>cluster_StoreModule_providers</title>
<polygon fill="none" stroke="black" points="16,-78 16,-130 698,-130 698,-78 16,-78"/>
</g>
<g id="clust4" class="cluster">
<title>cluster_StoreModule_exports</title>
<polygon fill="none" stroke="black" points="465,-208 465,-260 573,-260 573,-208 465,-208"/>
</g>
<!-- AuthenticationModule -->
<g id="node1" class="node">
<title>AuthenticationModule</title>
<polygon fill="#8dd3c7" stroke="black" points="1002.25,-122 999.25,-126 978.25,-126 975.25,-122 859.75,-122 859.75,-86 1002.25,-86 1002.25,-122"/>
<text text-anchor="middle" x="931" y="-99.8" font-family="Times,serif" font-size="14.00">AuthenticationModule</text>
</g>
<!-- StoreModule -->
<g id="node3" class="node">
<title>StoreModule</title>
<polygon fill="#8dd3c7" stroke="black" points="563.6,-187 560.6,-191 539.6,-191 536.6,-187 474.4,-187 474.4,-151 563.6,-151 563.6,-187"/>
<text text-anchor="middle" x="519" y="-164.8" font-family="Times,serif" font-size="14.00">StoreModule</text>
</g>
<!-- AuthenticationModule&#45;&gt;StoreModule -->
<g id="edge1" class="edge">
<title>AuthenticationModule&#45;&gt;StoreModule</title>
<path fill="none" stroke="black" d="M931,-122.28C931,-143.32 931,-175 931,-175 931,-175 573.88,-175 573.88,-175"/>
<polygon fill="black" stroke="black" points="573.88,-171.5 563.88,-175 573.88,-178.5 573.88,-171.5"/>
</g>
<!-- NotificationModule -->
<g id="node2" class="node">
<title>NotificationModule</title>
<polygon fill="#8dd3c7" stroke="black" points="841.7,-122 838.7,-126 817.7,-126 814.7,-122 714.3,-122 714.3,-86 841.7,-86 841.7,-122"/>
<text text-anchor="middle" x="778" y="-99.8" font-family="Times,serif" font-size="14.00">NotificationModule</text>
</g>
<!-- NotificationModule&#45;&gt;StoreModule -->
<g id="edge2" class="edge">
<title>NotificationModule&#45;&gt;StoreModule</title>
<path fill="none" stroke="black" d="M778,-122.02C778,-139.37 778,-163 778,-163 778,-163 573.82,-163 573.82,-163"/>
<polygon fill="black" stroke="black" points="573.82,-159.5 563.82,-163 573.82,-166.5 573.82,-159.5"/>
</g>
<!-- StoreService  -->
<g id="node4" class="node">
<title>StoreService </title>
<polygon fill="#fb8072" stroke="black" points="564.53,-252 473.47,-252 473.47,-216 564.53,-216 564.53,-252"/>
<text text-anchor="middle" x="519" y="-229.8" font-family="Times,serif" font-size="14.00">StoreService </text>
</g>
<!-- StoreModule&#45;&gt;StoreService  -->
<g id="edge3" class="edge">
<title>StoreModule&#45;&gt;StoreService </title>
<path fill="none" stroke="black" stroke-dasharray="5,2" d="M519,-187.11C519,-187.11 519,-205.99 519,-205.99"/>
<polygon fill="black" stroke="black" points="515.5,-205.99 519,-215.99 522.5,-205.99 515.5,-205.99"/>
</g>
<!-- AwsS3Service -->
<g id="node5" class="node">
<title>AwsS3Service</title>
<ellipse fill="#fdb462" stroke="black" cx="622" cy="-104" rx="67.77" ry="18"/>
<text text-anchor="middle" x="622" y="-99.8" font-family="Times,serif" font-size="14.00">AwsS3Service</text>
</g>
<!-- AwsS3Service&#45;&gt;StoreModule -->
<g id="edge4" class="edge">
<title>AwsS3Service&#45;&gt;StoreModule</title>
<path fill="none" stroke="black" d="M558.83,-110.96C558.83,-110.96 558.83,-140.81 558.83,-140.81"/>
<polygon fill="black" stroke="black" points="555.33,-140.81 558.83,-150.81 562.33,-140.81 555.33,-140.81"/>
</g>
<!-- FirebaseNotificationService -->
<g id="node6" class="node">
<title>FirebaseNotificationService</title>
<ellipse fill="#fdb462" stroke="black" cx="417" cy="-104" rx="119.23" ry="18"/>
<text text-anchor="middle" x="417" y="-99.8" font-family="Times,serif" font-size="14.00">FirebaseNotificationService</text>
</g>
<!-- FirebaseNotificationService&#45;&gt;StoreModule -->
<g id="edge5" class="edge">
<title>FirebaseNotificationService&#45;&gt;StoreModule</title>
<path fill="none" stroke="black" d="M505.41,-116.23C505.41,-116.23 505.41,-140.68 505.41,-140.68"/>
<polygon fill="black" stroke="black" points="501.91,-140.68 505.41,-150.68 508.91,-140.68 501.91,-140.68"/>
</g>
<!-- MailService -->
<g id="node7" class="node">
<title>MailService</title>
<ellipse fill="#fdb462" stroke="black" cx="221" cy="-104" rx="58.46" ry="18"/>
<text text-anchor="middle" x="221" y="-99.8" font-family="Times,serif" font-size="14.00">MailService</text>
</g>
<!-- MailService&#45;&gt;StoreModule -->
<g id="edge6" class="edge">
<title>MailService&#45;&gt;StoreModule</title>
<path fill="none" stroke="black" d="M221,-122.02C221,-139.37 221,-163 221,-163 221,-163 464.39,-163 464.39,-163"/>
<polygon fill="black" stroke="black" points="464.39,-166.5 474.39,-163 464.39,-159.5 464.39,-166.5"/>
</g>
<!-- StoreService -->
<g id="node8" class="node">
<title>StoreService</title>
<ellipse fill="#fdb462" stroke="black" cx="84" cy="-104" rx="60.25" ry="18"/>
<text text-anchor="middle" x="84" y="-99.8" font-family="Times,serif" font-size="14.00">StoreService</text>
</g>
<!-- StoreService&#45;&gt;StoreModule -->
<g id="edge7" class="edge">
<title>StoreService&#45;&gt;StoreModule</title>
<path fill="none" stroke="black" d="M84,-122.28C84,-143.32 84,-175 84,-175 84,-175 464.09,-175 464.09,-175"/>
<polygon fill="black" stroke="black" points="464.09,-178.5 474.09,-175 464.09,-171.5 464.09,-178.5"/>
</g>
</g>
</svg>
