<?xml version="1.0" encoding="UTF-8" standalone="no"?>
<!DOCTYPE svg PUBLIC "-//W3C//DTD SVG 1.1//EN"
 "http://www.w3.org/Graphics/SVG/1.1/DTD/svg11.dtd">
<!-- Generated by graphviz version 2.47.0 (20210316.0004)
 -->
<!-- Title: dependencies Pages: 1 -->
<svg width="2878pt" height="211pt"
 viewBox="0.00 0.00 2878.00 211.00" xmlns="http://www.w3.org/2000/svg" xmlns:xlink="http://www.w3.org/1999/xlink">
<g id="graph0" class="graph" transform="scale(1 1) rotate(0) translate(4 207)">
<title>dependencies</title>
<polygon fill="white" stroke="transparent" points="-4,4 -4,-207 2874,-207 2874,4 -4,4"/>
<text text-anchor="start" x="1414.01" y="-42.4" font-family="Times-12" font-weight="bold" font-size="14.00">Legend</text>
<polygon fill="#ffffb3" stroke="transparent" points="1201,-10 1201,-30 1221,-30 1221,-10 1201,-10"/>
<text text-anchor="start" x="1224.63" y="-15.4" font-family="Times-12" font-size="14.00"> &#160;Declarations</text>
<polygon fill="#8dd3c7" stroke="transparent" points="1314,-10 1314,-30 1334,-30 1334,-10 1314,-10"/>
<text text-anchor="start" x="1337.73" y="-15.4" font-family="Times-12" font-size="14.00"> &#160;Module</text>
<polygon fill="#80b1d3" stroke="transparent" points="1400,-10 1400,-30 1420,-30 1420,-10 1400,-10"/>
<text text-anchor="start" x="1423.78" y="-15.4" font-family="Times-12" font-size="14.00"> &#160;Bootstrap</text>
<polygon fill="#fdb462" stroke="transparent" points="1497,-10 1497,-30 1517,-30 1517,-10 1497,-10"/>
<text text-anchor="start" x="1520.67" y="-15.4" font-family="Times-12" font-size="14.00"> &#160;Providers</text>
<polygon fill="#fb8072" stroke="transparent" points="1593,-10 1593,-30 1613,-30 1613,-10 1593,-10"/>
<text text-anchor="start" x="1616.73" y="-15.4" font-family="Times-12" font-size="14.00"> &#160;Exports</text>
<g id="clust1" class="cluster">
<title>cluster_AppModule</title>
<polygon fill="none" stroke="black" stroke-dasharray="1,5" points="8,-70 8,-195 2862,-195 2862,-70 8,-70"/>
</g>
<g id="clust6" class="cluster">
<title>cluster_AppModule_providers</title>
<polygon fill="none" stroke="black" points="2009,-78 2009,-130 2854,-130 2854,-78 2009,-78"/>
</g>
<g id="clust3" class="cluster">
<title>cluster_AppModule_imports</title>
<polygon fill="none" stroke="black" points="16,-78 16,-130 2001,-130 2001,-78 16,-78"/>
</g>
<!-- AlertPriceModule -->
<g id="node1" class="node">
<title>AlertPriceModule</title>
<polygon fill="#8dd3c7" stroke="black" points="1992.58,-122 1989.58,-126 1968.58,-126 1965.58,-122 1875.42,-122 1875.42,-86 1992.58,-86 1992.58,-122"/>
<text text-anchor="middle" x="1934" y="-99.8" font-family="Times,serif" font-size="14.00">AlertPriceModule</text>
</g>
<!-- AppModule -->
<g id="node15" class="node">
<title>AppModule</title>
<polygon fill="#8dd3c7" stroke="black" points="1421.66,-187 1418.66,-191 1397.66,-191 1394.66,-187 1338.34,-187 1338.34,-151 1421.66,-151 1421.66,-187"/>
<text text-anchor="middle" x="1380" y="-164.8" font-family="Times,serif" font-size="14.00">AppModule</text>
</g>
<!-- AlertPriceModule&#45;&gt;AppModule -->
<g id="edge1" class="edge">
<title>AlertPriceModule&#45;&gt;AppModule</title>
<path fill="none" stroke="black" d="M1934,-122.27C1934,-140.56 1934,-166 1934,-166 1934,-166 1432.09,-166 1432.09,-166"/>
<polygon fill="black" stroke="black" points="1432.09,-162.5 1422.09,-166 1432.09,-169.5 1432.09,-162.5"/>
</g>
<!-- AlertSubscribeModule -->
<g id="node2" class="node">
<title>AlertSubscribeModule</title>
<polygon fill="#8dd3c7" stroke="black" points="1857.52,-122 1854.52,-126 1833.52,-126 1830.52,-122 1714.48,-122 1714.48,-86 1857.52,-86 1857.52,-122"/>
<text text-anchor="middle" x="1786" y="-99.8" font-family="Times,serif" font-size="14.00">AlertSubscribeModule</text>
</g>
<!-- AlertSubscribeModule&#45;&gt;AppModule -->
<g id="edge2" class="edge">
<title>AlertSubscribeModule&#45;&gt;AppModule</title>
<path fill="none" stroke="black" d="M1786,-122.03C1786,-139.06 1786,-162 1786,-162 1786,-162 1431.92,-162 1431.92,-162"/>
<polygon fill="black" stroke="black" points="1431.92,-158.5 1421.92,-162 1431.92,-165.5 1431.92,-158.5"/>
</g>
<!-- AuthenticationModule -->
<g id="node3" class="node">
<title>AuthenticationModule</title>
<polygon fill="#8dd3c7" stroke="black" points="1696.25,-122 1693.25,-126 1672.25,-126 1669.25,-122 1553.75,-122 1553.75,-86 1696.25,-86 1696.25,-122"/>
<text text-anchor="middle" x="1625" y="-99.8" font-family="Times,serif" font-size="14.00">AuthenticationModule</text>
</g>
<!-- AuthenticationModule&#45;&gt;AppModule -->
<g id="edge3" class="edge">
<title>AuthenticationModule&#45;&gt;AppModule</title>
<path fill="none" stroke="black" d="M1625,-122.01C1625,-138.05 1625,-159 1625,-159 1625,-159 1431.84,-159 1431.84,-159"/>
<polygon fill="black" stroke="black" points="1431.84,-155.5 1421.84,-159 1431.84,-162.5 1431.84,-155.5"/>
</g>
<!-- AwardModule -->
<g id="node4" class="node">
<title>AwardModule</title>
<polygon fill="#8dd3c7" stroke="black" points="1535.64,-122 1532.64,-126 1511.64,-126 1508.64,-122 1438.36,-122 1438.36,-86 1535.64,-86 1535.64,-122"/>
<text text-anchor="middle" x="1487" y="-99.8" font-family="Times,serif" font-size="14.00">AwardModule</text>
</g>
<!-- AwardModule&#45;&gt;AppModule -->
<g id="edge4" class="edge">
<title>AwardModule&#45;&gt;AppModule</title>
<path fill="none" stroke="black" d="M1487,-122.12C1487,-136.78 1487,-155 1487,-155 1487,-155 1431.68,-155 1431.68,-155"/>
<polygon fill="black" stroke="black" points="1431.68,-151.5 1421.68,-155 1431.68,-158.5 1431.68,-151.5"/>
</g>
<!-- CarModule -->
<g id="node5" class="node">
<title>CarModule</title>
<polygon fill="#8dd3c7" stroke="black" points="1419.76,-122 1416.76,-126 1395.76,-126 1392.76,-122 1340.24,-122 1340.24,-86 1419.76,-86 1419.76,-122"/>
<text text-anchor="middle" x="1380" y="-99.8" font-family="Times,serif" font-size="14.00">CarModule</text>
</g>
<!-- CarModule&#45;&gt;AppModule -->
<g id="edge5" class="edge">
<title>CarModule&#45;&gt;AppModule</title>
<path fill="none" stroke="black" d="M1380,-122.11C1380,-122.11 1380,-140.99 1380,-140.99"/>
<polygon fill="black" stroke="black" points="1376.5,-140.99 1380,-150.99 1383.5,-140.99 1376.5,-140.99"/>
</g>
<!-- FilterModule -->
<g id="node6" class="node">
<title>FilterModule</title>
<polygon fill="#8dd3c7" stroke="black" points="1321.88,-122 1318.88,-126 1297.88,-126 1294.88,-122 1232.12,-122 1232.12,-86 1321.88,-86 1321.88,-122"/>
<text text-anchor="middle" x="1277" y="-99.8" font-family="Times,serif" font-size="14.00">FilterModule</text>
</g>
<!-- FilterModule&#45;&gt;AppModule -->
<g id="edge6" class="edge">
<title>FilterModule&#45;&gt;AppModule</title>
<path fill="none" stroke="black" d="M1277,-122.12C1277,-136.78 1277,-155 1277,-155 1277,-155 1328.11,-155 1328.11,-155"/>
<polygon fill="black" stroke="black" points="1328.11,-158.5 1338.11,-155 1328.11,-151.5 1328.11,-158.5"/>
</g>
<!-- FinanceApplicationModule -->
<g id="node7" class="node">
<title>FinanceApplicationModule</title>
<polygon fill="#8dd3c7" stroke="black" points="1213.97,-122 1210.97,-126 1189.97,-126 1186.97,-122 1044.03,-122 1044.03,-86 1213.97,-86 1213.97,-122"/>
<text text-anchor="middle" x="1129" y="-99.8" font-family="Times,serif" font-size="14.00">FinanceApplicationModule</text>
</g>
<!-- FinanceApplicationModule&#45;&gt;AppModule -->
<g id="edge7" class="edge">
<title>FinanceApplicationModule&#45;&gt;AppModule</title>
<path fill="none" stroke="black" d="M1129,-122.01C1129,-138.05 1129,-159 1129,-159 1129,-159 1328.27,-159 1328.27,-159"/>
<polygon fill="black" stroke="black" points="1328.27,-162.5 1338.27,-159 1328.27,-155.5 1328.27,-162.5"/>
</g>
<!-- FinanceHelpModule -->
<g id="node8" class="node">
<title>FinanceHelpModule</title>
<polygon fill="#8dd3c7" stroke="black" points="1025.58,-122 1022.58,-126 1001.58,-126 998.58,-122 894.42,-122 894.42,-86 1025.58,-86 1025.58,-122"/>
<text text-anchor="middle" x="960" y="-99.8" font-family="Times,serif" font-size="14.00">FinanceHelpModule</text>
</g>
<!-- FinanceHelpModule&#45;&gt;AppModule -->
<g id="edge8" class="edge">
<title>FinanceHelpModule&#45;&gt;AppModule</title>
<path fill="none" stroke="black" d="M960,-122.03C960,-139.06 960,-162 960,-162 960,-162 1328.19,-162 1328.19,-162"/>
<polygon fill="black" stroke="black" points="1328.19,-165.5 1338.19,-162 1328.19,-158.5 1328.19,-165.5"/>
</g>
<!-- InquiryModule -->
<g id="node9" class="node">
<title>InquiryModule</title>
<polygon fill="#8dd3c7" stroke="black" points="876.26,-122 873.26,-126 852.26,-126 849.26,-122 775.74,-122 775.74,-86 876.26,-86 876.26,-122"/>
<text text-anchor="middle" x="826" y="-99.8" font-family="Times,serif" font-size="14.00">InquiryModule</text>
</g>
<!-- InquiryModule&#45;&gt;AppModule -->
<g id="edge9" class="edge">
<title>InquiryModule&#45;&gt;AppModule</title>
<path fill="none" stroke="black" d="M826,-122.27C826,-140.56 826,-166 826,-166 826,-166 1327.91,-166 1327.91,-166"/>
<polygon fill="black" stroke="black" points="1327.91,-169.5 1337.91,-166 1327.91,-162.5 1327.91,-169.5"/>
</g>
<!-- NotificationModule -->
<g id="node10" class="node">
<title>NotificationModule</title>
<polygon fill="#8dd3c7" stroke="black" points="757.7,-122 754.7,-126 733.7,-126 730.7,-122 630.3,-122 630.3,-86 757.7,-86 757.7,-122"/>
<text text-anchor="middle" x="694" y="-99.8" font-family="Times,serif" font-size="14.00">NotificationModule</text>
</g>
<!-- NotificationModule&#45;&gt;AppModule -->
<g id="edge10" class="edge">
<title>NotificationModule&#45;&gt;AppModule</title>
<path fill="none" stroke="black" d="M694,-122.11C694,-141.34 694,-169 694,-169 694,-169 1328.12,-169 1328.12,-169"/>
<polygon fill="black" stroke="black" points="1328.12,-172.5 1338.12,-169 1328.12,-165.5 1328.12,-172.5"/>
</g>
<!-- RemoteServiceModule -->
<g id="node11" class="node">
<title>RemoteServiceModule</title>
<polygon fill="#8dd3c7" stroke="black" points="612.57,-122 609.57,-126 588.57,-126 585.57,-122 467.43,-122 467.43,-86 612.57,-86 612.57,-122"/>
<text text-anchor="middle" x="540" y="-99.8" font-family="Times,serif" font-size="14.00">RemoteServiceModule</text>
</g>
<!-- RemoteServiceModule&#45;&gt;AppModule -->
<g id="edge11" class="edge">
<title>RemoteServiceModule&#45;&gt;AppModule</title>
<path fill="none" stroke="black" d="M540,-122.13C540,-142.57 540,-173 540,-173 540,-173 1328.06,-173 1328.06,-173"/>
<polygon fill="black" stroke="black" points="1328.06,-176.5 1338.06,-173 1328.06,-169.5 1328.06,-176.5"/>
</g>
<!-- StoreModule -->
<g id="node12" class="node">
<title>StoreModule</title>
<polygon fill="#8dd3c7" stroke="black" points="449.6,-122 446.6,-126 425.6,-126 422.6,-122 360.4,-122 360.4,-86 449.6,-86 449.6,-122"/>
<text text-anchor="middle" x="405" y="-99.8" font-family="Times,serif" font-size="14.00">StoreModule</text>
</g>
<!-- StoreModule&#45;&gt;AppModule -->
<g id="edge12" class="edge">
<title>StoreModule&#45;&gt;AppModule</title>
<path fill="none" stroke="black" d="M405,-122.04C405,-143.66 405,-177 405,-177 405,-177 1328.11,-177 1328.11,-177"/>
<polygon fill="black" stroke="black" points="1328.11,-180.5 1338.11,-177 1328.11,-173.5 1328.11,-180.5"/>
</g>
<!-- UserModule -->
<g id="node13" class="node">
<title>UserModule</title>
<polygon fill="#8dd3c7" stroke="black" points="341.98,-122 338.98,-126 317.98,-126 314.98,-122 256.02,-122 256.02,-86 341.98,-86 341.98,-122"/>
<text text-anchor="middle" x="299" y="-99.8" font-family="Times,serif" font-size="14.00">UserModule</text>
</g>
<!-- UserModule&#45;&gt;AppModule -->
<g id="edge13" class="edge">
<title>UserModule&#45;&gt;AppModule</title>
<path fill="none" stroke="black" d="M299,-122.01C299,-144.49 299,-180 299,-180 299,-180 1328.29,-180 1328.29,-180"/>
<polygon fill="black" stroke="black" points="1328.29,-183.5 1338.29,-180 1328.29,-176.5 1328.29,-183.5"/>
</g>
<!-- VehicleFinanceApplicationModule -->
<g id="node14" class="node">
<title>VehicleFinanceApplicationModule</title>
<polygon fill="#8dd3c7" stroke="black" points="238,-122 235,-126 214,-126 211,-122 24,-122 24,-86 238,-86 238,-122"/>
<text text-anchor="middle" x="131" y="-99.8" font-family="Times,serif" font-size="14.00">VehicleFinanceApplicationModule</text>
</g>
<!-- VehicleFinanceApplicationModule&#45;&gt;AppModule -->
<g id="edge14" class="edge">
<title>VehicleFinanceApplicationModule&#45;&gt;AppModule</title>
<path fill="none" stroke="black" d="M131,-122.15C131,-145.76 131,-184 131,-184 131,-184 1328.09,-184 1328.09,-184"/>
<polygon fill="black" stroke="black" points="1328.09,-187.5 1338.09,-184 1328.09,-180.5 1328.09,-187.5"/>
</g>
<!-- AppService -->
<g id="node16" class="node">
<title>AppService</title>
<ellipse fill="#fdb462" stroke="black" cx="2789" cy="-104" rx="56.74" ry="18"/>
<text text-anchor="middle" x="2789" y="-99.8" font-family="Times,serif" font-size="14.00">AppService</text>
</g>
<!-- AppService&#45;&gt;AppModule -->
<g id="edge15" class="edge">
<title>AppService&#45;&gt;AppModule</title>
<path fill="none" stroke="black" d="M2789,-122.15C2789,-145.76 2789,-184 2789,-184 2789,-184 1431.79,-184 1431.79,-184"/>
<polygon fill="black" stroke="black" points="1431.79,-180.5 1421.79,-184 1431.79,-187.5 1431.79,-180.5"/>
</g>
<!-- AwsS3Service -->
<g id="node17" class="node">
<title>AwsS3Service</title>
<ellipse fill="#fdb462" stroke="black" cx="2646" cy="-104" rx="67.77" ry="18"/>
<text text-anchor="middle" x="2646" y="-99.8" font-family="Times,serif" font-size="14.00">AwsS3Service</text>
</g>
<!-- AwsS3Service&#45;&gt;AppModule -->
<g id="edge16" class="edge">
<title>AwsS3Service&#45;&gt;AppModule</title>
<path fill="none" stroke="black" d="M2646,-122.01C2646,-144.49 2646,-180 2646,-180 2646,-180 1431.76,-180 1431.76,-180"/>
<polygon fill="black" stroke="black" points="1431.76,-176.5 1421.76,-180 1431.76,-183.5 1431.76,-176.5"/>
</g>
<!-- CommonService -->
<g id="node18" class="node">
<title>CommonService</title>
<ellipse fill="#fdb462" stroke="black" cx="2484" cy="-104" rx="75.88" ry="18"/>
<text text-anchor="middle" x="2484" y="-99.8" font-family="Times,serif" font-size="14.00">CommonService</text>
</g>
<!-- CommonService&#45;&gt;AppModule -->
<g id="edge17" class="edge">
<title>CommonService&#45;&gt;AppModule</title>
<path fill="none" stroke="black" d="M2484,-122.04C2484,-143.66 2484,-177 2484,-177 2484,-177 1431.93,-177 1431.93,-177"/>
<polygon fill="black" stroke="black" points="1431.93,-173.5 1421.93,-177 1431.93,-180.5 1431.93,-173.5"/>
</g>
<!-- FirebaseNotificationService -->
<g id="node19" class="node">
<title>FirebaseNotificationService</title>
<ellipse fill="#fdb462" stroke="black" cx="2271" cy="-104" rx="119.23" ry="18"/>
<text text-anchor="middle" x="2271" y="-99.8" font-family="Times,serif" font-size="14.00">FirebaseNotificationService</text>
</g>
<!-- FirebaseNotificationService&#45;&gt;AppModule -->
<g id="edge18" class="edge">
<title>FirebaseNotificationService&#45;&gt;AppModule</title>
<path fill="none" stroke="black" d="M2271,-122.13C2271,-142.57 2271,-173 2271,-173 2271,-173 1431.78,-173 1431.78,-173"/>
<polygon fill="black" stroke="black" points="1431.78,-169.5 1421.78,-173 1431.78,-176.5 1431.78,-169.5"/>
</g>
<!-- MailService -->
<g id="node20" class="node">
<title>MailService</title>
<ellipse fill="#fdb462" stroke="black" cx="2075" cy="-104" rx="58.46" ry="18"/>
<text text-anchor="middle" x="2075" y="-99.8" font-family="Times,serif" font-size="14.00">MailService</text>
</g>
<!-- MailService&#45;&gt;AppModule -->
<g id="edge19" class="edge">
<title>MailService&#45;&gt;AppModule</title>
<path fill="none" stroke="black" d="M2075,-122.11C2075,-141.34 2075,-169 2075,-169 2075,-169 1431.91,-169 1431.91,-169"/>
<polygon fill="black" stroke="black" points="1431.91,-165.5 1421.91,-169 1431.91,-172.5 1431.91,-165.5"/>
</g>
</g>
</svg>
