<?xml version="1.0" encoding="UTF-8" standalone="no"?>
<!DOCTYPE svg PUBLIC "-//W3C//DTD SVG 1.1//EN"
 "http://www.w3.org/Graphics/SVG/1.1/DTD/svg11.dtd">
<!-- Generated by graphviz version 2.47.0 (20210316.0004)
 -->
<!-- Title: dependencies Pages: 1 -->
<svg width="913pt" height="284pt"
 viewBox="0.00 0.00 913.00 284.00" xmlns="http://www.w3.org/2000/svg" xmlns:xlink="http://www.w3.org/1999/xlink">
<g id="graph0" class="graph" transform="scale(1 1) rotate(0) translate(4 280)">
<title>dependencies</title>
<polygon fill="white" stroke="transparent" points="-4,4 -4,-280 909,-280 909,4 -4,4"/>
<text text-anchor="start" x="431.51" y="-42.4" font-family="Times-12" font-weight="bold" font-size="14.00">Legend</text>
<polygon fill="#ffffb3" stroke="transparent" points="218.5,-10 218.5,-30 238.5,-30 238.5,-10 218.5,-10"/>
<text text-anchor="start" x="242.13" y="-15.4" font-family="Times-12" font-size="14.00"> &#160;Declarations</text>
<polygon fill="#8dd3c7" stroke="transparent" points="331.5,-10 331.5,-30 351.5,-30 351.5,-10 331.5,-10"/>
<text text-anchor="start" x="355.23" y="-15.4" font-family="Times-12" font-size="14.00"> &#160;Module</text>
<polygon fill="#80b1d3" stroke="transparent" points="417.5,-10 417.5,-30 437.5,-30 437.5,-10 417.5,-10"/>
<text text-anchor="start" x="441.28" y="-15.4" font-family="Times-12" font-size="14.00"> &#160;Bootstrap</text>
<polygon fill="#fdb462" stroke="transparent" points="514.5,-10 514.5,-30 534.5,-30 534.5,-10 514.5,-10"/>
<text text-anchor="start" x="538.17" y="-15.4" font-family="Times-12" font-size="14.00"> &#160;Providers</text>
<polygon fill="#fb8072" stroke="transparent" points="610.5,-10 610.5,-30 630.5,-30 630.5,-10 610.5,-10"/>
<text text-anchor="start" x="634.23" y="-15.4" font-family="Times-12" font-size="14.00"> &#160;Exports</text>
<g id="clust1" class="cluster">
<title>cluster_AlertPriceModule</title>
<polygon fill="none" stroke="black" stroke-dasharray="1,5" points="8,-70 8,-268 897,-268 897,-70 8,-70"/>
</g>
<g id="clust3" class="cluster">
<title>cluster_AlertPriceModule_imports</title>
<polygon fill="none" stroke="black" points="627,-78 627,-130 889,-130 889,-78 627,-78"/>
</g>
<g id="clust4" class="cluster">
<title>cluster_AlertPriceModule_exports</title>
<polygon fill="none" stroke="black" points="463,-208 463,-260 599,-260 599,-208 463,-208"/>
</g>
<g id="clust6" class="cluster">
<title>cluster_AlertPriceModule_providers</title>
<polygon fill="none" stroke="black" points="16,-78 16,-130 619,-130 619,-78 16,-78"/>
</g>
<!-- AuthenticationModule -->
<g id="node1" class="node">
<title>AuthenticationModule</title>
<polygon fill="#8dd3c7" stroke="black" points="881.25,-122 878.25,-126 857.25,-126 854.25,-122 738.75,-122 738.75,-86 881.25,-86 881.25,-122"/>
<text text-anchor="middle" x="810" y="-99.8" font-family="Times,serif" font-size="14.00">AuthenticationModule</text>
</g>
<!-- AlertPriceModule -->
<g id="node3" class="node">
<title>AlertPriceModule</title>
<polygon fill="#8dd3c7" stroke="black" points="589.58,-187 586.58,-191 565.58,-191 562.58,-187 472.42,-187 472.42,-151 589.58,-151 589.58,-187"/>
<text text-anchor="middle" x="531" y="-164.8" font-family="Times,serif" font-size="14.00">AlertPriceModule</text>
</g>
<!-- AuthenticationModule&#45;&gt;AlertPriceModule -->
<g id="edge1" class="edge">
<title>AuthenticationModule&#45;&gt;AlertPriceModule</title>
<path fill="none" stroke="black" d="M810,-122.28C810,-143.32 810,-175 810,-175 810,-175 599.83,-175 599.83,-175"/>
<polygon fill="black" stroke="black" points="599.83,-171.5 589.83,-175 599.83,-178.5 599.83,-171.5"/>
</g>
<!-- UserModule -->
<g id="node2" class="node">
<title>UserModule</title>
<polygon fill="#8dd3c7" stroke="black" points="720.98,-122 717.98,-126 696.98,-126 693.98,-122 635.02,-122 635.02,-86 720.98,-86 720.98,-122"/>
<text text-anchor="middle" x="678" y="-99.8" font-family="Times,serif" font-size="14.00">UserModule</text>
</g>
<!-- UserModule&#45;&gt;AlertPriceModule -->
<g id="edge2" class="edge">
<title>UserModule&#45;&gt;AlertPriceModule</title>
<path fill="none" stroke="black" d="M678,-122.02C678,-139.37 678,-163 678,-163 678,-163 599.94,-163 599.94,-163"/>
<polygon fill="black" stroke="black" points="599.94,-159.5 589.94,-163 599.94,-166.5 599.94,-159.5"/>
</g>
<!-- AlertPriceService  -->
<g id="node4" class="node">
<title>AlertPriceService </title>
<polygon fill="#fb8072" stroke="black" points="590.5,-252 471.5,-252 471.5,-216 590.5,-216 590.5,-252"/>
<text text-anchor="middle" x="531" y="-229.8" font-family="Times,serif" font-size="14.00">AlertPriceService </text>
</g>
<!-- AlertPriceModule&#45;&gt;AlertPriceService  -->
<g id="edge3" class="edge">
<title>AlertPriceModule&#45;&gt;AlertPriceService </title>
<path fill="none" stroke="black" stroke-dasharray="5,2" d="M531,-187.11C531,-187.11 531,-205.99 531,-205.99"/>
<polygon fill="black" stroke="black" points="527.5,-205.99 531,-215.99 534.5,-205.99 527.5,-205.99"/>
</g>
<!-- AlertPriceService -->
<g id="node5" class="node">
<title>AlertPriceService</title>
<ellipse fill="#fdb462" stroke="black" cx="531" cy="-104" rx="79.84" ry="18"/>
<text text-anchor="middle" x="531" y="-99.8" font-family="Times,serif" font-size="14.00">AlertPriceService</text>
</g>
<!-- AlertPriceService&#45;&gt;AlertPriceModule -->
<g id="edge4" class="edge">
<title>AlertPriceService&#45;&gt;AlertPriceModule</title>
<path fill="none" stroke="black" d="M531,-122.11C531,-122.11 531,-140.99 531,-140.99"/>
<polygon fill="black" stroke="black" points="527.5,-140.99 531,-150.99 534.5,-140.99 527.5,-140.99"/>
</g>
<!-- AlertSubscribeConsumerService -->
<g id="node6" class="node">
<title>AlertSubscribeConsumerService</title>
<ellipse fill="#fdb462" stroke="black" cx="296" cy="-104" rx="137.72" ry="18"/>
<text text-anchor="middle" x="296" y="-99.8" font-family="Times,serif" font-size="14.00">AlertSubscribeConsumerService</text>
</g>
<!-- AlertSubscribeConsumerService&#45;&gt;AlertPriceModule -->
<g id="edge5" class="edge">
<title>AlertSubscribeConsumerService&#45;&gt;AlertPriceModule</title>
<path fill="none" stroke="black" d="M296,-122.02C296,-139.37 296,-163 296,-163 296,-163 462.31,-163 462.31,-163"/>
<polygon fill="black" stroke="black" points="462.31,-166.5 472.31,-163 462.31,-159.5 462.31,-166.5"/>
</g>
<!-- MailService -->
<g id="node7" class="node">
<title>MailService</title>
<ellipse fill="#fdb462" stroke="black" cx="82" cy="-104" rx="58.46" ry="18"/>
<text text-anchor="middle" x="82" y="-99.8" font-family="Times,serif" font-size="14.00">MailService</text>
</g>
<!-- MailService&#45;&gt;AlertPriceModule -->
<g id="edge6" class="edge">
<title>MailService&#45;&gt;AlertPriceModule</title>
<path fill="none" stroke="black" d="M82,-122.28C82,-143.32 82,-175 82,-175 82,-175 462.3,-175 462.3,-175"/>
<polygon fill="black" stroke="black" points="462.3,-178.5 472.3,-175 462.3,-171.5 462.3,-178.5"/>
</g>
</g>
</svg>
