<?xml version="1.0" encoding="UTF-8" standalone="no"?>
<!DOCTYPE svg PUBLIC "-//W3C//DTD SVG 1.1//EN"
 "http://www.w3.org/Graphics/SVG/1.1/DTD/svg11.dtd">
<!-- Generated by graphviz version 2.47.0 (20210316.0004)
 -->
<!-- Title: dependencies Pages: 1 -->
<svg width="940pt" height="284pt"
 viewBox="0.00 0.00 940.00 284.00" xmlns="http://www.w3.org/2000/svg" xmlns:xlink="http://www.w3.org/1999/xlink">
<g id="graph0" class="graph" transform="scale(1 1) rotate(0) translate(4 280)">
<title>dependencies</title>
<polygon fill="white" stroke="transparent" points="-4,4 -4,-280 936,-280 936,4 -4,4"/>
<text text-anchor="start" x="445.01" y="-42.4" font-family="Times-12" font-weight="bold" font-size="14.00">Legend</text>
<polygon fill="#ffffb3" stroke="transparent" points="232,-10 232,-30 252,-30 252,-10 232,-10"/>
<text text-anchor="start" x="255.63" y="-15.4" font-family="Times-12" font-size="14.00"> &#160;Declarations</text>
<polygon fill="#8dd3c7" stroke="transparent" points="345,-10 345,-30 365,-30 365,-10 345,-10"/>
<text text-anchor="start" x="368.73" y="-15.4" font-family="Times-12" font-size="14.00"> &#160;Module</text>
<polygon fill="#80b1d3" stroke="transparent" points="431,-10 431,-30 451,-30 451,-10 431,-10"/>
<text text-anchor="start" x="454.78" y="-15.4" font-family="Times-12" font-size="14.00"> &#160;Bootstrap</text>
<polygon fill="#fdb462" stroke="transparent" points="528,-10 528,-30 548,-30 548,-10 528,-10"/>
<text text-anchor="start" x="551.67" y="-15.4" font-family="Times-12" font-size="14.00"> &#160;Providers</text>
<polygon fill="#fb8072" stroke="transparent" points="624,-10 624,-30 644,-30 644,-10 624,-10"/>
<text text-anchor="start" x="647.73" y="-15.4" font-family="Times-12" font-size="14.00"> &#160;Exports</text>
<g id="clust1" class="cluster">
<title>cluster_VehicleFinanceApplicationModule</title>
<polygon fill="none" stroke="black" stroke-dasharray="1,5" points="8,-70 8,-268 924,-268 924,-70 8,-70"/>
</g>
<g id="clust4" class="cluster">
<title>cluster_VehicleFinanceApplicationModule_exports</title>
<polygon fill="none" stroke="black" points="401,-208 401,-260 633,-260 633,-208 401,-208"/>
</g>
<g id="clust3" class="cluster">
<title>cluster_VehicleFinanceApplicationModule_imports</title>
<polygon fill="none" stroke="black" points="466,-78 466,-130 916,-130 916,-78 466,-78"/>
</g>
<g id="clust6" class="cluster">
<title>cluster_VehicleFinanceApplicationModule_providers</title>
<polygon fill="none" stroke="black" points="16,-78 16,-130 458,-130 458,-78 16,-78"/>
</g>
<!-- AuthenticationModule -->
<g id="node1" class="node">
<title>AuthenticationModule</title>
<polygon fill="#8dd3c7" stroke="black" points="908.25,-122 905.25,-126 884.25,-126 881.25,-122 765.75,-122 765.75,-86 908.25,-86 908.25,-122"/>
<text text-anchor="middle" x="837" y="-99.8" font-family="Times,serif" font-size="14.00">AuthenticationModule</text>
</g>
<!-- VehicleFinanceApplicationModule -->
<g id="node4" class="node">
<title>VehicleFinanceApplicationModule</title>
<polygon fill="#8dd3c7" stroke="black" points="624,-187 621,-191 600,-191 597,-187 410,-187 410,-151 624,-151 624,-187"/>
<text text-anchor="middle" x="517" y="-164.8" font-family="Times,serif" font-size="14.00">VehicleFinanceApplicationModule</text>
</g>
<!-- AuthenticationModule&#45;&gt;VehicleFinanceApplicationModule -->
<g id="edge1" class="edge">
<title>AuthenticationModule&#45;&gt;VehicleFinanceApplicationModule</title>
<path fill="none" stroke="black" d="M837,-122.11C837,-141.34 837,-169 837,-169 837,-169 634,-169 634,-169"/>
<polygon fill="black" stroke="black" points="634,-165.5 624,-169 634,-172.5 634,-165.5"/>
</g>
<!-- FinanceApplicationModule -->
<g id="node2" class="node">
<title>FinanceApplicationModule</title>
<polygon fill="#8dd3c7" stroke="black" points="747.97,-122 744.97,-126 723.97,-126 720.97,-122 578.03,-122 578.03,-86 747.97,-86 747.97,-122"/>
<text text-anchor="middle" x="663" y="-99.8" font-family="Times,serif" font-size="14.00">FinanceApplicationModule</text>
</g>
<!-- FinanceApplicationModule&#45;&gt;VehicleFinanceApplicationModule -->
<g id="edge2" class="edge">
<title>FinanceApplicationModule&#45;&gt;VehicleFinanceApplicationModule</title>
<path fill="none" stroke="black" d="M600.88,-122.11C600.88,-122.11 600.88,-140.99 600.88,-140.99"/>
<polygon fill="black" stroke="black" points="597.38,-140.99 600.88,-150.99 604.38,-140.99 597.38,-140.99"/>
</g>
<!-- UserModule -->
<g id="node3" class="node">
<title>UserModule</title>
<polygon fill="#8dd3c7" stroke="black" points="559.98,-122 556.98,-126 535.98,-126 532.98,-122 474.02,-122 474.02,-86 559.98,-86 559.98,-122"/>
<text text-anchor="middle" x="517" y="-99.8" font-family="Times,serif" font-size="14.00">UserModule</text>
</g>
<!-- UserModule&#45;&gt;VehicleFinanceApplicationModule -->
<g id="edge3" class="edge">
<title>UserModule&#45;&gt;VehicleFinanceApplicationModule</title>
<path fill="none" stroke="black" d="M517,-122.11C517,-122.11 517,-140.99 517,-140.99"/>
<polygon fill="black" stroke="black" points="513.5,-140.99 517,-150.99 520.5,-140.99 513.5,-140.99"/>
</g>
<!-- VehicleFinanceApplicationService  -->
<g id="node5" class="node">
<title>VehicleFinanceApplicationService </title>
<polygon fill="#fb8072" stroke="black" points="624.92,-252 409.08,-252 409.08,-216 624.92,-216 624.92,-252"/>
<text text-anchor="middle" x="517" y="-229.8" font-family="Times,serif" font-size="14.00">VehicleFinanceApplicationService </text>
</g>
<!-- VehicleFinanceApplicationModule&#45;&gt;VehicleFinanceApplicationService  -->
<g id="edge4" class="edge">
<title>VehicleFinanceApplicationModule&#45;&gt;VehicleFinanceApplicationService </title>
<path fill="none" stroke="black" stroke-dasharray="5,2" d="M517,-187.11C517,-187.11 517,-205.99 517,-205.99"/>
<polygon fill="black" stroke="black" points="513.5,-205.99 517,-215.99 520.5,-205.99 513.5,-205.99"/>
</g>
<!-- MailService -->
<g id="node6" class="node">
<title>MailService</title>
<ellipse fill="#fdb462" stroke="black" cx="392" cy="-104" rx="58.46" ry="18"/>
<text text-anchor="middle" x="392" y="-99.8" font-family="Times,serif" font-size="14.00">MailService</text>
</g>
<!-- MailService&#45;&gt;VehicleFinanceApplicationModule -->
<g id="edge5" class="edge">
<title>MailService&#45;&gt;VehicleFinanceApplicationModule</title>
<path fill="none" stroke="black" d="M430.24,-117.78C430.24,-117.78 430.24,-140.55 430.24,-140.55"/>
<polygon fill="black" stroke="black" points="426.74,-140.55 430.24,-150.55 433.74,-140.55 426.74,-140.55"/>
</g>
<!-- VehicleFinanceApplicationService -->
<g id="node7" class="node">
<title>VehicleFinanceApplicationService</title>
<ellipse fill="#fdb462" stroke="black" cx="170" cy="-104" rx="146.36" ry="18"/>
<text text-anchor="middle" x="170" y="-99.8" font-family="Times,serif" font-size="14.00">VehicleFinanceApplicationService</text>
</g>
<!-- VehicleFinanceApplicationService&#45;&gt;VehicleFinanceApplicationModule -->
<g id="edge6" class="edge">
<title>VehicleFinanceApplicationService&#45;&gt;VehicleFinanceApplicationModule</title>
<path fill="none" stroke="black" d="M170,-122.11C170,-141.34 170,-169 170,-169 170,-169 400.06,-169 400.06,-169"/>
<polygon fill="black" stroke="black" points="400.06,-172.5 410.06,-169 400.06,-165.5 400.06,-172.5"/>
</g>
</g>
</svg>
