<?xml version="1.0" encoding="UTF-8" standalone="no"?>
<!DOCTYPE svg PUBLIC "-//W3C//DTD SVG 1.1//EN"
 "http://www.w3.org/Graphics/SVG/1.1/DTD/svg11.dtd">
<!-- Generated by graphviz version 2.47.0 (20210316.0004)
 -->
<!-- Title: dependencies Pages: 1 -->
<svg width="695pt" height="211pt"
 viewBox="0.00 0.00 695.00 211.00" xmlns="http://www.w3.org/2000/svg" xmlns:xlink="http://www.w3.org/1999/xlink">
<g id="graph0" class="graph" transform="scale(1 1) rotate(0) translate(4 207)">
<title>dependencies</title>
<polygon fill="white" stroke="transparent" points="-4,4 -4,-207 691,-207 691,4 -4,4"/>
<text text-anchor="start" x="322.51" y="-42.4" font-family="Times-12" font-weight="bold" font-size="14.00">Legend</text>
<polygon fill="#ffffb3" stroke="transparent" points="109.5,-10 109.5,-30 129.5,-30 129.5,-10 109.5,-10"/>
<text text-anchor="start" x="133.13" y="-15.4" font-family="Times-12" font-size="14.00"> &#160;Declarations</text>
<polygon fill="#8dd3c7" stroke="transparent" points="222.5,-10 222.5,-30 242.5,-30 242.5,-10 222.5,-10"/>
<text text-anchor="start" x="246.23" y="-15.4" font-family="Times-12" font-size="14.00"> &#160;Module</text>
<polygon fill="#80b1d3" stroke="transparent" points="308.5,-10 308.5,-30 328.5,-30 328.5,-10 308.5,-10"/>
<text text-anchor="start" x="332.28" y="-15.4" font-family="Times-12" font-size="14.00"> &#160;Bootstrap</text>
<polygon fill="#fdb462" stroke="transparent" points="405.5,-10 405.5,-30 425.5,-30 425.5,-10 405.5,-10"/>
<text text-anchor="start" x="429.17" y="-15.4" font-family="Times-12" font-size="14.00"> &#160;Providers</text>
<polygon fill="#fb8072" stroke="transparent" points="501.5,-10 501.5,-30 521.5,-30 521.5,-10 501.5,-10"/>
<text text-anchor="start" x="525.23" y="-15.4" font-family="Times-12" font-size="14.00"> &#160;Exports</text>
<g id="clust1" class="cluster">
<title>cluster_InquiryModule</title>
<polygon fill="none" stroke="black" stroke-dasharray="1,5" points="8,-70 8,-195 679,-195 679,-70 8,-70"/>
</g>
<g id="clust3" class="cluster">
<title>cluster_InquiryModule_imports</title>
<polygon fill="none" stroke="black" points="311,-78 311,-130 671,-130 671,-78 311,-78"/>
</g>
<g id="clust6" class="cluster">
<title>cluster_InquiryModule_providers</title>
<polygon fill="none" stroke="black" points="16,-78 16,-130 303,-130 303,-78 16,-78"/>
</g>
<!-- AuthenticationModule -->
<g id="node1" class="node">
<title>AuthenticationModule</title>
<polygon fill="#8dd3c7" stroke="black" points="663.25,-122 660.25,-126 639.25,-126 636.25,-122 520.75,-122 520.75,-86 663.25,-86 663.25,-122"/>
<text text-anchor="middle" x="592" y="-99.8" font-family="Times,serif" font-size="14.00">AuthenticationModule</text>
</g>
<!-- InquiryModule -->
<g id="node4" class="node">
<title>InquiryModule</title>
<polygon fill="#8dd3c7" stroke="black" points="412.26,-187 409.26,-191 388.26,-191 385.26,-187 311.74,-187 311.74,-151 412.26,-151 412.26,-187"/>
<text text-anchor="middle" x="362" y="-164.8" font-family="Times,serif" font-size="14.00">InquiryModule</text>
</g>
<!-- AuthenticationModule&#45;&gt;InquiryModule -->
<g id="edge1" class="edge">
<title>AuthenticationModule&#45;&gt;InquiryModule</title>
<path fill="none" stroke="black" d="M592,-122.11C592,-141.34 592,-169 592,-169 592,-169 422.47,-169 422.47,-169"/>
<polygon fill="black" stroke="black" points="422.47,-165.5 412.47,-169 422.47,-172.5 422.47,-165.5"/>
</g>
<!-- CarModule -->
<g id="node2" class="node">
<title>CarModule</title>
<polygon fill="#8dd3c7" stroke="black" points="502.76,-122 499.76,-126 478.76,-126 475.76,-122 423.24,-122 423.24,-86 502.76,-86 502.76,-122"/>
<text text-anchor="middle" x="463" y="-99.8" font-family="Times,serif" font-size="14.00">CarModule</text>
</g>
<!-- CarModule&#45;&gt;InquiryModule -->
<g id="edge2" class="edge">
<title>CarModule&#45;&gt;InquiryModule</title>
<path fill="none" stroke="black" d="M422.96,-104C414.81,-104 408.68,-104 408.68,-104 408.68,-104 408.68,-140.89 408.68,-140.89"/>
<polygon fill="black" stroke="black" points="405.18,-140.89 408.68,-150.89 412.18,-140.89 405.18,-140.89"/>
</g>
<!-- UserModule -->
<g id="node3" class="node">
<title>UserModule</title>
<polygon fill="#8dd3c7" stroke="black" points="404.98,-122 401.98,-126 380.98,-126 377.98,-122 319.02,-122 319.02,-86 404.98,-86 404.98,-122"/>
<text text-anchor="middle" x="362" y="-99.8" font-family="Times,serif" font-size="14.00">UserModule</text>
</g>
<!-- UserModule&#45;&gt;InquiryModule -->
<g id="edge3" class="edge">
<title>UserModule&#45;&gt;InquiryModule</title>
<path fill="none" stroke="black" d="M362,-122.11C362,-122.11 362,-140.99 362,-140.99"/>
<polygon fill="black" stroke="black" points="358.5,-140.99 362,-150.99 365.5,-140.99 358.5,-140.99"/>
</g>
<!-- InquiryService -->
<g id="node5" class="node">
<title>InquiryService</title>
<ellipse fill="#fdb462" stroke="black" cx="227" cy="-104" rx="68.34" ry="18"/>
<text text-anchor="middle" x="227" y="-99.8" font-family="Times,serif" font-size="14.00">InquiryService</text>
</g>
<!-- InquiryService&#45;&gt;InquiryModule -->
<g id="edge4" class="edge">
<title>InquiryService&#45;&gt;InquiryModule</title>
<path fill="none" stroke="black" d="M295.72,-104C307.12,-104 315.32,-104 315.32,-104 315.32,-104 315.32,-140.89 315.32,-140.89"/>
<polygon fill="black" stroke="black" points="311.82,-140.89 315.32,-150.89 318.82,-140.89 311.82,-140.89"/>
</g>
<!-- MailService -->
<g id="node6" class="node">
<title>MailService</title>
<ellipse fill="#fdb462" stroke="black" cx="82" cy="-104" rx="58.46" ry="18"/>
<text text-anchor="middle" x="82" y="-99.8" font-family="Times,serif" font-size="14.00">MailService</text>
</g>
<!-- MailService&#45;&gt;InquiryModule -->
<g id="edge5" class="edge">
<title>MailService&#45;&gt;InquiryModule</title>
<path fill="none" stroke="black" d="M82,-122.11C82,-141.34 82,-169 82,-169 82,-169 301.62,-169 301.62,-169"/>
<polygon fill="black" stroke="black" points="301.62,-172.5 311.62,-169 301.62,-165.5 301.62,-172.5"/>
</g>
</g>
</svg>
