<?xml version="1.0" encoding="UTF-8" standalone="no"?>
<!DOCTYPE svg PUBLIC "-//W3C//DTD SVG 1.1//EN"
 "http://www.w3.org/Graphics/SVG/1.1/DTD/svg11.dtd">
<!-- Generated by graphviz version 2.47.0 (20210316.0004)
 -->
<!-- Title: dependencies Pages: 1 -->
<svg width="590pt" height="284pt"
 viewBox="0.00 0.00 590.00 284.00" xmlns="http://www.w3.org/2000/svg" xmlns:xlink="http://www.w3.org/1999/xlink">
<g id="graph0" class="graph" transform="scale(1 1) rotate(0) translate(4 280)">
<title>dependencies</title>
<polygon fill="white" stroke="transparent" points="-4,4 -4,-280 586,-280 586,4 -4,4"/>
<text text-anchor="start" x="270.01" y="-42.4" font-family="Times-12" font-weight="bold" font-size="14.00">Legend</text>
<polygon fill="#ffffb3" stroke="transparent" points="57,-10 57,-30 77,-30 77,-10 57,-10"/>
<text text-anchor="start" x="80.63" y="-15.4" font-family="Times-12" font-size="14.00"> &#160;Declarations</text>
<polygon fill="#8dd3c7" stroke="transparent" points="170,-10 170,-30 190,-30 190,-10 170,-10"/>
<text text-anchor="start" x="193.73" y="-15.4" font-family="Times-12" font-size="14.00"> &#160;Module</text>
<polygon fill="#80b1d3" stroke="transparent" points="256,-10 256,-30 276,-30 276,-10 256,-10"/>
<text text-anchor="start" x="279.78" y="-15.4" font-family="Times-12" font-size="14.00"> &#160;Bootstrap</text>
<polygon fill="#fdb462" stroke="transparent" points="353,-10 353,-30 373,-30 373,-10 353,-10"/>
<text text-anchor="start" x="376.67" y="-15.4" font-family="Times-12" font-size="14.00"> &#160;Providers</text>
<polygon fill="#fb8072" stroke="transparent" points="449,-10 449,-30 469,-30 469,-10 449,-10"/>
<text text-anchor="start" x="472.73" y="-15.4" font-family="Times-12" font-size="14.00"> &#160;Exports</text>
<g id="clust1" class="cluster">
<title>cluster_FilterModule</title>
<polygon fill="none" stroke="black" stroke-dasharray="1,5" points="8,-70 8,-268 574,-268 574,-70 8,-70"/>
</g>
<g id="clust3" class="cluster">
<title>cluster_FilterModule_imports</title>
<polygon fill="none" stroke="black" points="304,-78 304,-130 566,-130 566,-78 304,-78"/>
</g>
<g id="clust6" class="cluster">
<title>cluster_FilterModule_providers</title>
<polygon fill="none" stroke="black" points="16,-78 16,-130 296,-130 296,-78 16,-78"/>
</g>
<g id="clust4" class="cluster">
<title>cluster_FilterModule_exports</title>
<polygon fill="none" stroke="black" points="237,-208 237,-260 345,-260 345,-208 237,-208"/>
</g>
<!-- AuthenticationModule -->
<g id="node1" class="node">
<title>AuthenticationModule</title>
<polygon fill="#8dd3c7" stroke="black" points="558.25,-122 555.25,-126 534.25,-126 531.25,-122 415.75,-122 415.75,-86 558.25,-86 558.25,-122"/>
<text text-anchor="middle" x="487" y="-99.8" font-family="Times,serif" font-size="14.00">AuthenticationModule</text>
</g>
<!-- FilterModule -->
<g id="node3" class="node">
<title>FilterModule</title>
<polygon fill="#8dd3c7" stroke="black" points="335.88,-187 332.88,-191 311.88,-191 308.88,-187 246.12,-187 246.12,-151 335.88,-151 335.88,-187"/>
<text text-anchor="middle" x="291" y="-164.8" font-family="Times,serif" font-size="14.00">FilterModule</text>
</g>
<!-- AuthenticationModule&#45;&gt;FilterModule -->
<g id="edge1" class="edge">
<title>AuthenticationModule&#45;&gt;FilterModule</title>
<path fill="none" stroke="black" d="M487,-122.11C487,-141.34 487,-169 487,-169 487,-169 345.97,-169 345.97,-169"/>
<polygon fill="black" stroke="black" points="345.97,-165.5 335.97,-169 345.97,-172.5 345.97,-165.5"/>
</g>
<!-- UserModule -->
<g id="node2" class="node">
<title>UserModule</title>
<polygon fill="#8dd3c7" stroke="black" points="397.98,-122 394.98,-126 373.98,-126 370.98,-122 312.02,-122 312.02,-86 397.98,-86 397.98,-122"/>
<text text-anchor="middle" x="355" y="-99.8" font-family="Times,serif" font-size="14.00">UserModule</text>
</g>
<!-- UserModule&#45;&gt;FilterModule -->
<g id="edge2" class="edge">
<title>UserModule&#45;&gt;FilterModule</title>
<path fill="none" stroke="black" d="M323.98,-122.11C323.98,-122.11 323.98,-140.99 323.98,-140.99"/>
<polygon fill="black" stroke="black" points="320.48,-140.99 323.98,-150.99 327.48,-140.99 320.48,-140.99"/>
</g>
<!-- FilterService  -->
<g id="node4" class="node">
<title>FilterService </title>
<polygon fill="#fb8072" stroke="black" points="336.81,-252 245.19,-252 245.19,-216 336.81,-216 336.81,-252"/>
<text text-anchor="middle" x="291" y="-229.8" font-family="Times,serif" font-size="14.00">FilterService </text>
</g>
<!-- FilterModule&#45;&gt;FilterService  -->
<g id="edge3" class="edge">
<title>FilterModule&#45;&gt;FilterService </title>
<path fill="none" stroke="black" stroke-dasharray="5,2" d="M291,-187.11C291,-187.11 291,-205.99 291,-205.99"/>
<polygon fill="black" stroke="black" points="287.5,-205.99 291,-215.99 294.5,-205.99 287.5,-205.99"/>
</g>
<!-- FilterService -->
<g id="node5" class="node">
<title>FilterService</title>
<ellipse fill="#fdb462" stroke="black" cx="227" cy="-104" rx="60.83" ry="18"/>
<text text-anchor="middle" x="227" y="-99.8" font-family="Times,serif" font-size="14.00">FilterService</text>
</g>
<!-- FilterService&#45;&gt;FilterModule -->
<g id="edge4" class="edge">
<title>FilterService&#45;&gt;FilterModule</title>
<path fill="none" stroke="black" d="M266.99,-117.78C266.99,-117.78 266.99,-140.55 266.99,-140.55"/>
<polygon fill="black" stroke="black" points="263.49,-140.55 266.99,-150.55 270.49,-140.55 263.49,-140.55"/>
</g>
<!-- RedisService -->
<g id="node6" class="node">
<title>RedisService</title>
<ellipse fill="#fdb462" stroke="black" cx="86" cy="-104" rx="61.97" ry="18"/>
<text text-anchor="middle" x="86" y="-99.8" font-family="Times,serif" font-size="14.00">RedisService</text>
</g>
<!-- RedisService&#45;&gt;FilterModule -->
<g id="edge5" class="edge">
<title>RedisService&#45;&gt;FilterModule</title>
<path fill="none" stroke="black" d="M86,-122.11C86,-141.34 86,-169 86,-169 86,-169 236.01,-169 236.01,-169"/>
<polygon fill="black" stroke="black" points="236.01,-172.5 246.01,-169 236.01,-165.5 236.01,-172.5"/>
</g>
</g>
</svg>
