<?xml version="1.0" encoding="UTF-8" standalone="no"?>
<!DOCTYPE svg PUBLIC "-//W3C//DTD SVG 1.1//EN"
 "http://www.w3.org/Graphics/SVG/1.1/DTD/svg11.dtd">
<!-- Generated by graphviz version 2.47.0 (20210316.0004)
 -->
<!-- Title: dependencies Pages: 1 -->
<svg width="966pt" height="284pt"
 viewBox="0.00 0.00 966.00 284.00" xmlns="http://www.w3.org/2000/svg" xmlns:xlink="http://www.w3.org/1999/xlink">
<g id="graph0" class="graph" transform="scale(1 1) rotate(0) translate(4 280)">
<title>dependencies</title>
<polygon fill="white" stroke="transparent" points="-4,4 -4,-280 962,-280 962,4 -4,4"/>
<text text-anchor="start" x="458.01" y="-42.4" font-family="Times-12" font-weight="bold" font-size="14.00">Legend</text>
<polygon fill="#ffffb3" stroke="transparent" points="245,-10 245,-30 265,-30 265,-10 245,-10"/>
<text text-anchor="start" x="268.63" y="-15.4" font-family="Times-12" font-size="14.00"> &#160;Declarations</text>
<polygon fill="#8dd3c7" stroke="transparent" points="358,-10 358,-30 378,-30 378,-10 358,-10"/>
<text text-anchor="start" x="381.73" y="-15.4" font-family="Times-12" font-size="14.00"> &#160;Module</text>
<polygon fill="#80b1d3" stroke="transparent" points="444,-10 444,-30 464,-30 464,-10 444,-10"/>
<text text-anchor="start" x="467.78" y="-15.4" font-family="Times-12" font-size="14.00"> &#160;Bootstrap</text>
<polygon fill="#fdb462" stroke="transparent" points="541,-10 541,-30 561,-30 561,-10 541,-10"/>
<text text-anchor="start" x="564.67" y="-15.4" font-family="Times-12" font-size="14.00"> &#160;Providers</text>
<polygon fill="#fb8072" stroke="transparent" points="637,-10 637,-30 657,-30 657,-10 637,-10"/>
<text text-anchor="start" x="660.73" y="-15.4" font-family="Times-12" font-size="14.00"> &#160;Exports</text>
<g id="clust1" class="cluster">
<title>cluster_CarModule</title>
<polygon fill="none" stroke="black" stroke-dasharray="1,5" points="8,-70 8,-268 950,-268 950,-70 8,-70"/>
</g>
<g id="clust6" class="cluster">
<title>cluster_CarModule_providers</title>
<polygon fill="none" stroke="black" points="182,-78 182,-130 942,-130 942,-78 182,-78"/>
</g>
<g id="clust4" class="cluster">
<title>cluster_CarModule_exports</title>
<polygon fill="none" stroke="black" points="406,-208 406,-260 504,-260 504,-208 406,-208"/>
</g>
<g id="clust3" class="cluster">
<title>cluster_CarModule_imports</title>
<polygon fill="none" stroke="black" points="16,-78 16,-130 174,-130 174,-78 16,-78"/>
</g>
<!-- AuthenticationModule -->
<g id="node1" class="node">
<title>AuthenticationModule</title>
<polygon fill="#8dd3c7" stroke="black" points="166.25,-122 163.25,-126 142.25,-126 139.25,-122 23.75,-122 23.75,-86 166.25,-86 166.25,-122"/>
<text text-anchor="middle" x="95" y="-99.8" font-family="Times,serif" font-size="14.00">AuthenticationModule</text>
</g>
<!-- CarModule -->
<g id="node2" class="node">
<title>CarModule</title>
<polygon fill="#8dd3c7" stroke="black" points="494.76,-187 491.76,-191 470.76,-191 467.76,-187 415.24,-187 415.24,-151 494.76,-151 494.76,-187"/>
<text text-anchor="middle" x="455" y="-164.8" font-family="Times,serif" font-size="14.00">CarModule</text>
</g>
<!-- AuthenticationModule&#45;&gt;CarModule -->
<g id="edge1" class="edge">
<title>AuthenticationModule&#45;&gt;CarModule</title>
<path fill="none" stroke="black" d="M95,-122.28C95,-143.32 95,-175 95,-175 95,-175 405.1,-175 405.1,-175"/>
<polygon fill="black" stroke="black" points="405.1,-178.5 415.1,-175 405.1,-171.5 405.1,-178.5"/>
</g>
<!-- CarService  -->
<g id="node3" class="node">
<title>CarService </title>
<polygon fill="#fb8072" stroke="black" points="495.69,-252 414.31,-252 414.31,-216 495.69,-216 495.69,-252"/>
<text text-anchor="middle" x="455" y="-229.8" font-family="Times,serif" font-size="14.00">CarService </text>
</g>
<!-- CarModule&#45;&gt;CarService  -->
<g id="edge2" class="edge">
<title>CarModule&#45;&gt;CarService </title>
<path fill="none" stroke="black" stroke-dasharray="5,2" d="M455,-187.11C455,-187.11 455,-205.99 455,-205.99"/>
<polygon fill="black" stroke="black" points="451.5,-205.99 455,-215.99 458.5,-205.99 451.5,-205.99"/>
</g>
<!-- AwsS3Service -->
<g id="node4" class="node">
<title>AwsS3Service</title>
<ellipse fill="#fdb462" stroke="black" cx="866" cy="-104" rx="67.77" ry="18"/>
<text text-anchor="middle" x="866" y="-99.8" font-family="Times,serif" font-size="14.00">AwsS3Service</text>
</g>
<!-- AwsS3Service&#45;&gt;CarModule -->
<g id="edge3" class="edge">
<title>AwsS3Service&#45;&gt;CarModule</title>
<path fill="none" stroke="black" d="M866,-122.28C866,-143.32 866,-175 866,-175 866,-175 504.78,-175 504.78,-175"/>
<polygon fill="black" stroke="black" points="504.78,-171.5 494.78,-175 504.78,-178.5 504.78,-171.5"/>
</g>
<!-- CarConsumerService -->
<g id="node5" class="node">
<title>CarConsumerService</title>
<ellipse fill="#fdb462" stroke="black" cx="686" cy="-104" rx="93.76" ry="18"/>
<text text-anchor="middle" x="686" y="-99.8" font-family="Times,serif" font-size="14.00">CarConsumerService</text>
</g>
<!-- CarConsumerService&#45;&gt;CarModule -->
<g id="edge4" class="edge">
<title>CarConsumerService&#45;&gt;CarModule</title>
<path fill="none" stroke="black" d="M686,-122.02C686,-139.37 686,-163 686,-163 686,-163 504.97,-163 504.97,-163"/>
<polygon fill="black" stroke="black" points="504.97,-159.5 494.97,-163 504.97,-166.5 504.97,-159.5"/>
</g>
<!-- CarService -->
<g id="node6" class="node">
<title>CarService</title>
<ellipse fill="#fdb462" stroke="black" cx="520" cy="-104" rx="53.87" ry="18"/>
<text text-anchor="middle" x="520" y="-99.8" font-family="Times,serif" font-size="14.00">CarService</text>
</g>
<!-- CarService&#45;&gt;CarModule -->
<g id="edge5" class="edge">
<title>CarService&#45;&gt;CarModule</title>
<path fill="none" stroke="black" d="M480.47,-116.53C480.47,-116.53 480.47,-140.85 480.47,-140.85"/>
<polygon fill="black" stroke="black" points="476.97,-140.85 480.47,-150.85 483.97,-140.85 476.97,-140.85"/>
</g>
<!-- MailService -->
<g id="node7" class="node">
<title>MailService</title>
<ellipse fill="#fdb462" stroke="black" cx="390" cy="-104" rx="58.46" ry="18"/>
<text text-anchor="middle" x="390" y="-99.8" font-family="Times,serif" font-size="14.00">MailService</text>
</g>
<!-- MailService&#45;&gt;CarModule -->
<g id="edge6" class="edge">
<title>MailService&#45;&gt;CarModule</title>
<path fill="none" stroke="black" d="M431.67,-116.84C431.67,-116.84 431.67,-140.52 431.67,-140.52"/>
<polygon fill="black" stroke="black" points="428.17,-140.52 431.67,-150.52 435.17,-140.52 428.17,-140.52"/>
</g>
<!-- RedisService -->
<g id="node8" class="node">
<title>RedisService</title>
<ellipse fill="#fdb462" stroke="black" cx="252" cy="-104" rx="61.97" ry="18"/>
<text text-anchor="middle" x="252" y="-99.8" font-family="Times,serif" font-size="14.00">RedisService</text>
</g>
<!-- RedisService&#45;&gt;CarModule -->
<g id="edge7" class="edge">
<title>RedisService&#45;&gt;CarModule</title>
<path fill="none" stroke="black" d="M252,-122.02C252,-139.37 252,-163 252,-163 252,-163 404.89,-163 404.89,-163"/>
<polygon fill="black" stroke="black" points="404.89,-166.5 414.89,-163 404.89,-159.5 404.89,-166.5"/>
</g>
</g>
</svg>
