<?xml version="1.0" encoding="UTF-8" standalone="no"?>
<!DOCTYPE svg PUBLIC "-//W3C//DTD SVG 1.1//EN"
 "http://www.w3.org/Graphics/SVG/1.1/DTD/svg11.dtd">
<!-- Generated by graphviz version 2.47.0 (20210316.0004)
 -->
<!-- Title: dependencies Pages: 1 -->
<svg width="1274pt" height="211pt"
 viewBox="0.00 0.00 1274.00 211.00" xmlns="http://www.w3.org/2000/svg" xmlns:xlink="http://www.w3.org/1999/xlink">
<g id="graph0" class="graph" transform="scale(1 1) rotate(0) translate(4 207)">
<title>dependencies</title>
<polygon fill="white" stroke="transparent" points="-4,4 -4,-207 1270,-207 1270,4 -4,4"/>
<text text-anchor="start" x="612.01" y="-42.4" font-family="Times-12" font-weight="bold" font-size="14.00">Legend</text>
<polygon fill="#ffffb3" stroke="transparent" points="399,-10 399,-30 419,-30 419,-10 399,-10"/>
<text text-anchor="start" x="422.63" y="-15.4" font-family="Times-12" font-size="14.00"> &#160;Declarations</text>
<polygon fill="#8dd3c7" stroke="transparent" points="512,-10 512,-30 532,-30 532,-10 512,-10"/>
<text text-anchor="start" x="535.73" y="-15.4" font-family="Times-12" font-size="14.00"> &#160;Module</text>
<polygon fill="#80b1d3" stroke="transparent" points="598,-10 598,-30 618,-30 618,-10 598,-10"/>
<text text-anchor="start" x="621.78" y="-15.4" font-family="Times-12" font-size="14.00"> &#160;Bootstrap</text>
<polygon fill="#fdb462" stroke="transparent" points="695,-10 695,-30 715,-30 715,-10 695,-10"/>
<text text-anchor="start" x="718.67" y="-15.4" font-family="Times-12" font-size="14.00"> &#160;Providers</text>
<polygon fill="#fb8072" stroke="transparent" points="791,-10 791,-30 811,-30 811,-10 791,-10"/>
<text text-anchor="start" x="814.73" y="-15.4" font-family="Times-12" font-size="14.00"> &#160;Exports</text>
<g id="clust1" class="cluster">
<title>cluster_FinanceHelpModule</title>
<polygon fill="none" stroke="black" stroke-dasharray="1,5" points="8,-70 8,-195 1258,-195 1258,-70 8,-70"/>
</g>
<g id="clust3" class="cluster">
<title>cluster_FinanceHelpModule_imports</title>
<polygon fill="none" stroke="black" points="610,-78 610,-130 1250,-130 1250,-78 610,-78"/>
</g>
<g id="clust6" class="cluster">
<title>cluster_FinanceHelpModule_providers</title>
<polygon fill="none" stroke="black" points="16,-78 16,-130 602,-130 602,-78 16,-78"/>
</g>
<!-- AuthenticationModule -->
<g id="node1" class="node">
<title>AuthenticationModule</title>
<polygon fill="#8dd3c7" stroke="black" points="1242.25,-122 1239.25,-126 1218.25,-126 1215.25,-122 1099.75,-122 1099.75,-86 1242.25,-86 1242.25,-122"/>
<text text-anchor="middle" x="1171" y="-99.8" font-family="Times,serif" font-size="14.00">AuthenticationModule</text>
</g>
<!-- FinanceHelpModule -->
<g id="node5" class="node">
<title>FinanceHelpModule</title>
<polygon fill="#8dd3c7" stroke="black" points="790.58,-187 787.58,-191 766.58,-191 763.58,-187 659.42,-187 659.42,-151 790.58,-151 790.58,-187"/>
<text text-anchor="middle" x="725" y="-164.8" font-family="Times,serif" font-size="14.00">FinanceHelpModule</text>
</g>
<!-- AuthenticationModule&#45;&gt;FinanceHelpModule -->
<g id="edge1" class="edge">
<title>AuthenticationModule&#45;&gt;FinanceHelpModule</title>
<path fill="none" stroke="black" d="M1171,-122.29C1171,-144.21 1171,-178 1171,-178 1171,-178 800.81,-178 800.81,-178"/>
<polygon fill="black" stroke="black" points="800.81,-174.5 790.81,-178 800.81,-181.5 800.81,-174.5"/>
</g>
<!-- NotificationModule -->
<g id="node2" class="node">
<title>NotificationModule</title>
<polygon fill="#8dd3c7" stroke="black" points="1081.7,-122 1078.7,-126 1057.7,-126 1054.7,-122 954.3,-122 954.3,-86 1081.7,-86 1081.7,-122"/>
<text text-anchor="middle" x="1018" y="-99.8" font-family="Times,serif" font-size="14.00">NotificationModule</text>
</g>
<!-- NotificationModule&#45;&gt;FinanceHelpModule -->
<g id="edge2" class="edge">
<title>NotificationModule&#45;&gt;FinanceHelpModule</title>
<path fill="none" stroke="black" d="M1018,-122.11C1018,-141.34 1018,-169 1018,-169 1018,-169 800.75,-169 800.75,-169"/>
<polygon fill="black" stroke="black" points="800.75,-165.5 790.75,-169 800.75,-172.5 800.75,-165.5"/>
</g>
<!-- UserModule -->
<g id="node3" class="node">
<title>UserModule</title>
<polygon fill="#8dd3c7" stroke="black" points="935.98,-122 932.98,-126 911.98,-126 908.98,-122 850.02,-122 850.02,-86 935.98,-86 935.98,-122"/>
<text text-anchor="middle" x="893" y="-99.8" font-family="Times,serif" font-size="14.00">UserModule</text>
</g>
<!-- UserModule&#45;&gt;FinanceHelpModule -->
<g id="edge3" class="edge">
<title>UserModule&#45;&gt;FinanceHelpModule</title>
<path fill="none" stroke="black" d="M893,-122.03C893,-138.4 893,-160 893,-160 893,-160 800.92,-160 800.92,-160"/>
<polygon fill="black" stroke="black" points="800.92,-156.5 790.92,-160 800.92,-163.5 800.92,-156.5"/>
</g>
<!-- VehicleFinanceApplicationModule -->
<g id="node4" class="node">
<title>VehicleFinanceApplicationModule</title>
<polygon fill="#8dd3c7" stroke="black" points="832,-122 829,-126 808,-126 805,-122 618,-122 618,-86 832,-86 832,-122"/>
<text text-anchor="middle" x="725" y="-99.8" font-family="Times,serif" font-size="14.00">VehicleFinanceApplicationModule</text>
</g>
<!-- VehicleFinanceApplicationModule&#45;&gt;FinanceHelpModule -->
<g id="edge4" class="edge">
<title>VehicleFinanceApplicationModule&#45;&gt;FinanceHelpModule</title>
<path fill="none" stroke="black" d="M725,-122.11C725,-122.11 725,-140.99 725,-140.99"/>
<polygon fill="black" stroke="black" points="721.5,-140.99 725,-150.99 728.5,-140.99 721.5,-140.99"/>
</g>
<!-- FinanceHelpService -->
<g id="node6" class="node">
<title>FinanceHelpService</title>
<ellipse fill="#fdb462" stroke="black" cx="505" cy="-104" rx="89.16" ry="18"/>
<text text-anchor="middle" x="505" y="-99.8" font-family="Times,serif" font-size="14.00">FinanceHelpService</text>
</g>
<!-- FinanceHelpService&#45;&gt;FinanceHelpModule -->
<g id="edge5" class="edge">
<title>FinanceHelpService&#45;&gt;FinanceHelpModule</title>
<path fill="none" stroke="black" d="M505,-122.03C505,-138.4 505,-160 505,-160 505,-160 649.29,-160 649.29,-160"/>
<polygon fill="black" stroke="black" points="649.29,-163.5 659.29,-160 649.29,-156.5 649.29,-163.5"/>
</g>
<!-- FirebaseNotificationService -->
<g id="node7" class="node">
<title>FirebaseNotificationService</title>
<ellipse fill="#fdb462" stroke="black" cx="278" cy="-104" rx="119.23" ry="18"/>
<text text-anchor="middle" x="278" y="-99.8" font-family="Times,serif" font-size="14.00">FirebaseNotificationService</text>
</g>
<!-- FirebaseNotificationService&#45;&gt;FinanceHelpModule -->
<g id="edge6" class="edge">
<title>FirebaseNotificationService&#45;&gt;FinanceHelpModule</title>
<path fill="none" stroke="black" d="M278,-122.11C278,-141.34 278,-169 278,-169 278,-169 649.04,-169 649.04,-169"/>
<polygon fill="black" stroke="black" points="649.04,-172.5 659.04,-169 649.04,-165.5 649.04,-172.5"/>
</g>
<!-- MailService -->
<g id="node8" class="node">
<title>MailService</title>
<ellipse fill="#fdb462" stroke="black" cx="82" cy="-104" rx="58.46" ry="18"/>
<text text-anchor="middle" x="82" y="-99.8" font-family="Times,serif" font-size="14.00">MailService</text>
</g>
<!-- MailService&#45;&gt;FinanceHelpModule -->
<g id="edge7" class="edge">
<title>MailService&#45;&gt;FinanceHelpModule</title>
<path fill="none" stroke="black" d="M82,-122.29C82,-144.21 82,-178 82,-178 82,-178 649.21,-178 649.21,-178"/>
<polygon fill="black" stroke="black" points="649.21,-181.5 659.21,-178 649.21,-174.5 649.21,-181.5"/>
</g>
</g>
</svg>
